<svg width="32" height="32" viewBox="0 0 32 32" fill="none" xmlns="http://www.w3.org/2000/svg">
<path d="M25.7253 23.5883H28.8626C30.043 23.5883 30.9999 24.5451 30.9999 25.7255V28.8628C30.9999 30.0432 30.043 31.0001 28.8626 31.0001H25.7253C24.5449 31.0001 23.5881 30.0432 23.5881 28.8628V25.7255C23.5881 24.5451 24.5449 23.5883 25.7253 23.5883Z" stroke="#5F5F5F" stroke-width="2"/>
<path d="M25.7253 12.2943H28.8626C30.043 12.2943 30.9999 13.2512 30.9999 14.4316V17.5689C30.9999 18.7492 30.043 19.7061 28.8626 19.7061H25.7253C24.5449 19.7061 23.5881 18.7492 23.5881 17.5689V14.4316C23.5881 13.2512 24.5449 12.2943 25.7253 12.2943Z" stroke="#5F5F5F" stroke-width="2"/>
<path d="M25.7253 1H28.8626C30.043 1 30.9999 1.95689 30.9999 3.13728V6.27455C30.9999 7.45494 30.043 8.41183 28.8626 8.41183H25.7253C24.5449 8.41183 23.5881 7.45494 23.5881 6.27455V3.13728C23.5881 1.95689 24.5449 1 25.7253 1Z" stroke="#5F5F5F" stroke-width="2"/>
<path d="M14.4311 23.5883H17.5683C18.7487 23.5883 19.7056 24.5451 19.7056 25.7255V28.8628C19.7056 30.0432 18.7487 31.0001 17.5683 31.0001H14.4311C13.2507 31.0001 12.2938 30.0432 12.2938 28.8628V25.7255C12.2938 24.5451 13.2507 23.5883 14.4311 23.5883Z" stroke="#5F5F5F" stroke-width="2"/>
<path d="M14.4311 12.2943H17.5683C18.7487 12.2943 19.7056 13.2512 19.7056 14.4316V17.5689C19.7056 18.7492 18.7487 19.7061 17.5683 19.7061H14.4311C13.2507 19.7061 12.2938 18.7492 12.2938 17.5689V14.4316C12.2938 13.2512 13.2507 12.2943 14.4311 12.2943Z" stroke="#5F5F5F" stroke-width="2"/>
<path d="M14.4311 1H17.5683C18.7487 1 19.7056 1.95689 19.7056 3.13728V6.27455C19.7056 7.45494 18.7487 8.41183 17.5683 8.41183H14.4311C13.2507 8.41183 12.2938 7.45494 12.2938 6.27455V3.13728C12.2938 1.95689 13.2507 1 14.4311 1Z" stroke="#5F5F5F" stroke-width="2"/>
<path d="M3.13679 23.5883H6.27406C7.45445 23.5883 8.41134 24.5451 8.41134 25.7255V28.8628C8.41134 30.0432 7.45445 31.0001 6.27406 31.0001H3.13679C1.9564 31.0001 0.999512 30.0432 0.999512 28.8628V25.7255C0.999512 24.5451 1.9564 23.5883 3.13679 23.5883Z" stroke="#5F5F5F" stroke-width="2"/>
<path d="M3.13679 12.2943H6.27406C7.45445 12.2943 8.41134 13.2512 8.41134 14.4316V17.5689C8.41134 18.7492 7.45445 19.7061 6.27406 19.7061H3.13679C1.9564 19.7061 0.999512 18.7492 0.999512 17.5689V14.4316C0.999512 13.2512 1.9564 12.2943 3.13679 12.2943Z" stroke="#5F5F5F" stroke-width="2"/>
<path d="M3.13679 1H6.27406C7.45445 1 8.41134 1.95689 8.41134 3.13728V6.27455C8.41134 7.45494 7.45445 8.41183 6.27406 8.41183H3.13679C1.9564 8.41183 0.999512 7.45494 0.999512 6.27455V3.13728C0.999512 1.95689 1.9564 1 3.13679 1Z" stroke="#5F5F5F" stroke-width="2"/>
</svg>
