<svg width="98" height="73" viewBox="0 0 98 73" fill="none" xmlns="http://www.w3.org/2000/svg">
<path fill-rule="evenodd" clip-rule="evenodd" d="M23.4137 5.35081L31.0759 9.77737C31.4379 9.98613 31.5748 10.4786 31.37 10.8435L13.9264 41.0308C13.8209 41.2143 13.6466 41.3379 13.4509 41.3906C13.2521 41.4433 13.0392 41.4261 12.8597 41.3247L12.8618 41.3207L5.1975 36.8982C4.83553 36.6894 4.69866 36.1969 4.90347 35.8321L22.3471 5.64469C22.5559 5.2829 23.0487 5.1461 23.4137 5.35081ZM75.6531 5.81852C75.4442 5.45674 74.9514 5.31992 74.5864 5.52463L66.9242 9.95119C66.5622 10.16 66.4253 10.6525 66.6302 11.0173L84.0737 41.2047C84.2826 41.5665 84.7754 41.7033 85.1404 41.4986L92.8026 37.072C93.1646 36.8632 93.3015 36.3707 93.0967 36.0059L75.6531 5.81852ZM26.421 44.7539C25.698 44.7509 22.9483 48.8126 22.49 49.7176C21.4771 51.717 22.6127 52.472 24.5026 53.0598C24.6395 52.4639 27.3538 48.6494 27.7482 48.2745C28.461 46.7655 28.5938 44.761 26.421 44.7539ZM33.0926 50.7554C30.9542 50.9611 27.6945 55.4596 28.1234 56.6534C28.6466 58.1086 30.2435 58.362 31.5961 58.1157L31.6606 58.023C32.4959 56.8236 36.9829 50.3813 33.0926 50.7543V50.7554ZM35.8076 60.2372C36.9689 58.5083 38.3508 56.4508 40.4384 56.3017V56.3007C44.5468 56.0081 38.9404 62.4361 38.0279 63.4824L37.9614 63.5587C36.5044 63.4533 35.4885 62.3001 35.3708 60.8813C35.5133 60.6754 35.6584 60.4593 35.8072 60.2379L35.8075 60.2375L35.8076 60.2372ZM51.1749 67.3528C52.1057 67.5292 52.8804 67.063 53.4999 66.4012C52.7678 65.9574 51.9364 65.3747 51.0685 64.6187C51.2703 64.874 52.0428 65.8945 51.1759 67.3528H51.1749ZM42.0799 65.9289C42.7382 65.1455 44.4181 63.1462 44.5925 62.6518H44.5915C44.6544 62.4764 46.3446 62.9821 46.4602 63.4584C46.7197 64.5256 44.6554 67.733 43.6922 67.883C43.2511 67.9519 42.6873 67.4654 41.9097 66.1318C41.9531 66.0798 42.0106 66.0114 42.0792 65.9298L42.0799 65.9289ZM54.2562 30.6789L47.5623 31.6163C44.4698 39.1743 38.6246 41.7463 30.9177 39.0213C29.6016 38.5561 28.7955 37.3056 29.336 35.9071L34.4999 22.5341C34.6652 22.1045 34.9592 21.7194 35.3688 21.4417L37.562 19.9581L33.3045 16.854L19.8112 40.213L21.7518 42.3564C24.7145 37.8265 32.7103 40.3661 32.906 46.0776C36.5369 45.8395 39.3069 48.0568 39.2106 51.7405C43.7246 50.9237 47.4082 53.739 46.3557 58.3763C46.5352 58.4067 46.7137 58.4442 46.8901 58.4878C47.2226 56.3799 50.0251 55.7638 51.1851 57.6041C53.7199 61.6051 56.5366 62.8363 57.298 63.1089C58.3414 63.0968 59.0014 61.9081 59.3522 61.068C56.1492 59.0726 53.6448 57.2069 51.0573 54.421C48.9575 52.1662 52.3886 48.9739 54.4884 51.2298C57.0648 54.0035 59.5185 55.6827 62.7276 57.6396C63.4181 57.5899 64.4381 57.4856 65.0485 57.1491C60.9765 55.0422 57.808 51.5602 55.1089 47.9261C53.2748 45.4534 57.0364 42.6655 58.8706 45.1382C61.4795 48.6497 64.648 52.1854 68.8649 53.7167C70.6879 54.1768 72.5373 51.627 72.0374 49.6367C63.6989 44.9203 59.1353 38.2227 54.2562 30.6799V30.6789ZM38.6023 24.8972L49.8467 17.2895V17.2905L64.6298 16.9146L77.6658 39.4821L73.3607 44.9849C66.2439 40.607 62.1132 34.2094 57.5029 27.0669C56.9493 26.2085 56.1767 25.6815 55.0928 25.8315L45.6085 27.1591C44.7274 27.2523 43.9386 27.8442 43.6354 28.737C42.0932 33.2487 39.6669 36.1896 34.6246 35.2045L38.6023 24.8972Z" fill="url(#paint0_linear_64_219)"/>
<path d="M79.7088 3.47165C78.2021 0.864157 74.8581 -0.0286494 72.2493 1.47626L64.5759 5.89877C62.3504 7.18377 61.3212 9.86119 62.1101 12.2984L49.0517 12.6298C48.5529 12.642 48.0936 12.8092 47.7194 13.0838L41.6774 17.1709L35.6365 12.7666C36.841 10.2068 35.8788 7.13918 33.4251 5.72243L25.7517 1.29992C23.1439 -0.204987 19.7989 0.687825 18.2923 3.29532L0.852728 33.4949C-0.653966 36.1034 0.239297 39.4436 2.84914 40.9505L10.5225 45.373C12.7217 46.6418 15.506 46.2273 17.2378 44.3809L19.0872 46.3286C15.3823 51.5041 18.0195 56.0898 23.5373 57.6525C24.4985 61.1224 27.4956 62.9749 31.0038 62.8766C31.8941 65.8955 34.583 68.0521 37.7333 68.2375C40.3188 72.6539 43.7945 74.0058 47.7225 70.918C51.7984 73.4667 56.0539 71.5696 58.322 67.7176C61.1925 67.2535 62.9922 64.801 63.9209 62.225C66.4841 61.9219 68.9084 60.9004 69.969 58.3659C74.6412 57.7416 77.759 53.0384 76.5788 48.4639L80.1965 43.8387C80.9559 44.9839 82.0885 45.7591 83.3376 46.0935C84.6831 46.4533 86.1715 46.3003 87.4775 45.5473L95.1509 41.1248C97.7607 39.6189 98.654 36.2777 97.1473 33.6692L79.7078 3.46963L79.7088 3.47165ZM13.9263 41.0306C13.8208 41.214 13.6464 41.3376 13.4508 41.3903C13.252 41.444 13.0391 41.4258 12.8596 41.3244L12.8617 41.3204L5.19738 36.8979C4.83541 36.6891 4.69854 36.1966 4.90336 35.8318L22.3469 5.6444C22.5558 5.28261 23.0486 5.14581 23.4136 5.35051L31.0758 9.77708C31.4378 9.98584 31.5747 10.4784 31.3699 10.8432L13.9263 41.0306ZM24.5015 53.0597C22.6116 52.4719 21.476 51.718 22.4889 49.7175C22.9472 48.8125 25.6969 44.7508 26.4199 44.7538C28.5927 44.7619 28.4599 46.7654 27.7471 48.2744C27.3527 48.6483 24.6374 52.4628 24.5015 53.0597ZM31.596 58.1166C30.2434 58.3629 28.6465 58.1095 28.1233 56.6543C27.6944 55.4605 30.9542 50.9609 33.0925 50.7562C37.0975 50.3721 32.2216 57.2147 31.596 58.1176V58.1166ZM37.9604 63.5596C36.5034 63.4542 35.4874 62.301 35.3698 60.8822C36.626 59.0682 38.082 56.4708 40.4374 56.3026C44.6634 56.0016 38.6093 62.8107 37.9604 63.5606V63.5596ZM43.6931 67.8828C43.2521 67.9517 42.6873 67.4653 41.9106 66.1316C42.371 65.5804 44.4008 63.1978 44.5935 62.6516C44.6553 62.4773 46.3465 62.983 46.4621 63.4583C46.7207 64.5254 44.6564 67.7318 43.6941 67.8828H43.6931ZM51.1749 67.3528C52.0428 65.8955 51.2692 64.874 51.0674 64.6186C51.9353 65.3746 52.7667 65.9573 53.4988 66.4012C52.8793 67.063 52.1057 67.5291 51.1739 67.3528H51.1749ZM68.8648 53.7144C64.6479 52.1841 61.4794 48.6473 58.8706 45.1359C57.0364 42.6632 53.2747 45.451 55.1089 47.9238C57.809 51.5578 60.9765 55.0399 65.0484 57.1468C64.438 57.4832 63.418 57.5876 62.7275 57.6373C59.5185 55.6804 57.0648 54.0022 54.4884 51.2275C52.3885 48.9716 48.9574 52.1638 51.0573 54.4187C53.6448 57.2045 56.1492 59.0712 59.3522 61.0656C59.0014 61.9057 58.3413 63.0945 57.298 63.1066C56.5365 62.834 53.7208 61.6027 51.185 57.6018C50.0261 55.7614 47.2226 56.3776 46.89 58.4855C46.7126 58.4419 46.5341 58.4044 46.3557 58.374C47.4081 53.7377 43.7246 50.9214 39.2106 51.7382C39.3069 48.0545 36.5378 45.8371 32.906 46.0753C32.7103 40.3637 24.7144 37.8241 21.7518 42.3541L19.8111 40.2107L33.3044 16.8517L37.5619 19.9557L35.3688 21.4394C34.9592 21.717 34.6651 22.1021 34.4998 22.5318L29.3359 35.9047C28.7955 37.3032 29.6006 38.5538 30.9177 39.0189C38.6245 41.744 44.4698 39.172 47.5623 31.614L54.2562 30.6766C59.1352 38.2194 63.6989 44.917 72.0374 49.6334C72.5383 51.6237 70.6879 54.1734 68.8648 53.7133V53.7144ZM73.3616 44.9849C66.2438 40.607 62.1131 34.2093 57.5038 27.0668C56.9492 26.2085 56.1776 25.6815 55.0937 25.8315L45.6094 27.159C44.7283 27.2533 43.9395 27.8441 43.6363 28.7369C42.0942 33.2486 39.6678 36.1885 34.6256 35.2045L38.6032 24.8971L49.8476 17.2895L64.6307 16.9135L77.6667 39.4811L73.3616 44.9839V44.9849ZM92.8026 37.0732L85.1404 41.4998C84.7754 41.7045 84.2826 41.5677 84.0737 41.2059L66.6301 11.0185C66.4253 10.6537 66.5622 10.1612 66.9242 9.95239L74.5864 5.52583C74.9514 5.32112 75.4442 5.45794 75.6531 5.81972L93.0967 36.0071C93.3015 36.3719 93.1646 36.8644 92.8026 37.0732Z" fill="#057B82"/>
<defs>
<linearGradient id="paint0_linear_64_219" x1="49.0001" y1="5.25537" x2="49.0001" y2="67.8893" gradientUnits="userSpaceOnUse">
<stop stop-color="#9CF7FC"/>
<stop offset="1" stop-color="#48D8DF"/>
</linearGradient>
</defs>
</svg>
