<svg width="36" height="36" viewBox="0 0 36 36" fill="none" xmlns="http://www.w3.org/2000/svg">
<path fill-rule="evenodd" clip-rule="evenodd" d="M12.8936 10.1277C11.366 10.1277 10.1277 11.366 10.1277 12.8936C10.1277 14.4212 11.366 15.6596 12.8936 15.6596C14.4212 15.6596 15.6596 14.4212 15.6596 12.8936C15.6596 11.366 14.4212 10.1277 12.8936 10.1277ZM8 12.8936C8 10.1909 10.1909 8 12.8936 8C15.5963 8 17.7872 10.1909 17.7872 12.8936C17.7872 15.5963 15.5963 17.7872 12.8936 17.7872C10.1909 17.7872 8 15.5963 8 12.8936Z" fill="#00969F"/>
<path fill-rule="evenodd" clip-rule="evenodd" d="M12.8936 20.3404C11.366 20.3404 10.1277 21.5788 10.1277 23.1064C10.1277 24.634 11.366 25.8723 12.8936 25.8723C14.4212 25.8723 15.6596 24.634 15.6596 23.1064C15.6596 21.5788 14.4212 20.3404 12.8936 20.3404ZM8 23.1064C8 20.4037 10.1909 18.2128 12.8936 18.2128C15.5963 18.2128 17.7872 20.4037 17.7872 23.1064C17.7872 25.8091 15.5963 28 12.8936 28C10.1909 28 8 25.8091 8 23.1064Z" fill="#00969F"/>
<path fill-rule="evenodd" clip-rule="evenodd" d="M23.1064 10.1277C21.5788 10.1277 20.3404 11.366 20.3404 12.8936C20.3404 14.4212 21.5788 15.6596 23.1064 15.6596C24.634 15.6596 25.8723 14.4212 25.8723 12.8936C25.8723 11.366 24.634 10.1277 23.1064 10.1277ZM18.2128 12.8936C18.2128 10.1909 20.4037 8 23.1064 8C25.8091 8 28 10.1909 28 12.8936C28 15.5963 25.8091 17.7872 23.1064 17.7872C20.4037 17.7872 18.2128 15.5963 18.2128 12.8936Z" fill="#00969F"/>
<path fill-rule="evenodd" clip-rule="evenodd" d="M23.1064 20.3404C21.5788 20.3404 20.3404 21.5788 20.3404 23.1064C20.3404 24.634 21.5788 25.8723 23.1064 25.8723C24.634 25.8723 25.8723 24.634 25.8723 23.1064C25.8723 21.5788 24.634 20.3404 23.1064 20.3404ZM18.2128 23.1064C18.2128 20.4037 20.4037 18.2128 23.1064 18.2128C25.8091 18.2128 28 20.4037 28 23.1064C28 25.8091 25.8091 28 23.1064 28C20.4037 28 18.2128 25.8091 18.2128 23.1064Z" fill="#00969F"/>
</svg>
