<svg width="16" height="16" viewBox="0 0 16 16" fill="none" xmlns="http://www.w3.org/2000/svg">
<path fill-rule="evenodd" clip-rule="evenodd" d="M0.742112 2.80911C0.325182 1.17499 1.74969 0 3.11142 0H13.5567C14.9173 0 16.3408 1.17485 15.9273 2.80763L15.9266 2.81025C15.6418 3.92044 15.1173 4.95479 14.39 5.84067C13.6628 6.72655 12.7504 7.44246 11.717 7.93813C11.2133 8.17959 10.9454 8.59459 10.9454 8.96381V13.3891C10.9452 13.7124 10.8551 14.0296 10.685 14.3045C10.515 14.5793 10.2719 14.8014 9.98287 14.9459C9.98281 14.9459 9.98294 14.9458 9.98287 14.9459L8.24199 15.8163C7.97665 15.9489 7.68163 16.0116 7.3853 15.9982C7.08897 15.9849 6.80097 15.896 6.54861 15.7401C6.29626 15.5842 6.08793 15.3664 5.94339 15.1074C5.79886 14.8484 5.7229 14.5567 5.72275 14.26V8.96381C5.72275 8.59474 5.45528 8.1799 4.95083 7.9384L4.95001 7.93801C3.91695 7.44212 3.00496 6.7261 2.27807 5.84024C1.55118 4.95437 1.02702 3.92013 0.742374 2.81013L0.742112 2.80911ZM2.42885 2.37831C2.65042 3.24196 3.0583 4.04666 3.62388 4.73594C4.1895 5.42527 4.89913 5.98245 5.70297 6.36838C6.6311 6.81287 7.46363 7.74538 7.46363 8.96381L7.46363 14.2591L9.20433 13.3888L9.20451 8.96381C9.20451 7.74544 10.037 6.81294 10.9641 6.36846M2.42885 2.37831C2.39007 2.22581 2.42761 2.09293 2.53758 1.97407C2.65841 1.84348 2.86506 1.74088 3.11142 1.74088H13.5567C13.8018 1.74088 14.0085 1.84319 14.1299 1.97431C14.2404 2.09367 14.2782 2.22699 14.2399 2.37916C14.0182 3.24258 13.6101 4.04703 13.0445 4.73607C12.4785 5.42546 11.7683 5.9827 10.9641 6.36846" fill="#00969F"/>
</svg>
