<svg width="37" height="36" viewBox="0 0 37 36" fill="none" xmlns="http://www.w3.org/2000/svg">
<path d="M17.6429 27C16.9026 27 16.1954 26.7169 14.781 26.151C11.2603 24.742 9.5 24.0375 9.5 22.8525C9.5 22.5207 9.5 16.1267 9.5 13.5M17.6429 27V17.8755M17.6429 27C17.9508 27 18.68 26.4784 19 26.3805M25.7857 13.5V17.8755" stroke="#747474" stroke-width="1.8" stroke-linecap="round" stroke-linejoin="round"/>
<path d="M23.7375 23.9761L24.9998 22.5M27.5 23.5714C27.5 21.6779 25.965 20.1428 24.0715 20.1428C22.1779 20.1428 20.6429 21.6779 20.6429 23.5714C20.6429 25.4649 22.1779 27 24.0715 27C25.965 27 27.5 25.4649 27.5 23.5714Z" stroke="#747474" stroke-width="1.8" stroke-linecap="round" stroke-linejoin="round"/>
<path d="M14.3187 16.3251L11.6757 14.9789C10.2252 14.2401 9.5 13.8707 9.5 13.2857C9.5 12.7007 10.2252 12.3313 11.6757 11.5925L14.3187 10.2463C15.9499 9.41544 16.7655 9 17.6429 9C18.5202 9 19.3358 9.41543 20.967 10.2463L23.61 11.5925C25.0605 12.3313 25.7857 12.7007 25.7857 13.2857C25.7857 13.8707 25.0605 14.2401 23.61 14.9789L20.967 16.3251C19.3358 17.156 18.5202 17.5714 17.6429 17.5714C16.7655 17.5714 15.9499 17.156 14.3187 16.3251Z" stroke="#747474" stroke-width="1.8" stroke-linecap="round" stroke-linejoin="round"/>
<path d="M22.5001 11L13.7857 15.8571" stroke="#747474" stroke-width="1.8" stroke-linecap="round" stroke-linejoin="round"/>
</svg>
