<svg width="37" height="36" viewBox="0 0 37 36" fill="none" xmlns="http://www.w3.org/2000/svg">
<path d="M10.5 23.757V14.8535C10.5 12.0941 10.5 10.7144 11.3787 9.85723C12.2574 9 13.6716 9 16.5 9H20.5C23.3284 9 24.7426 9 25.6213 9.85723C26.5 10.7144 26.5 12.0941 26.5 14.8535V23.757C26.5 25.2186 26.5 25.9493 26.038 26.237C25.2831 26.7071 24.1161 25.7213 23.5291 25.3634C23.0441 25.0677 22.8017 24.9198 22.5325 24.9113C22.2417 24.9021 21.9949 25.0439 21.4709 25.3634L19.56 26.5286C19.0445 26.8428 18.7868 27 18.5 27C18.2132 27 17.9555 26.8428 17.44 26.5286L15.5291 25.3634C15.0441 25.0677 14.8017 24.9198 14.5325 24.9113C14.2417 24.9021 13.9949 25.0439 13.4709 25.3634C12.884 25.7213 11.7169 26.7071 10.9619 26.237C10.5 25.9493 10.5 25.2186 10.5 23.757Z" stroke="#747474" stroke-width="2" stroke-linecap="round" stroke-linejoin="round"/>
<path d="M18.5 18H14.5" stroke="#747474" stroke-width="2" stroke-linecap="round" stroke-linejoin="round"/>
<path d="M21.5 14H14.5" stroke="#747474" stroke-width="2" stroke-linecap="round" stroke-linejoin="round"/>
</svg>
