<svg width="80" height="72" viewBox="0 0 80 72" fill="none" xmlns="http://www.w3.org/2000/svg">
<path d="M11.7863 2.34668H67.315C68.627 2.34668 69.6916 3.35325 69.6916 4.59372V50.3378C69.6916 51.5783 68.627 52.5849 67.315 52.5849H11.7863C10.4743 52.5849 9.40967 51.5783 9.40967 50.3378V4.59372C9.40967 3.35325 10.4743 2.34668 11.7863 2.34668Z" fill="url(#paint0_linear_64_206)"/>
<path fill-rule="evenodd" clip-rule="evenodd" d="M25.9154 38.1279C24.6176 38.1279 23.5671 39.122 23.5671 40.3481V44.7876C23.5671 46.0156 24.6165 47.0078 25.9154 47.0068C27.2142 47.0068 28.2636 46.0156 28.2636 44.7876V40.3462C28.2636 39.122 27.2142 38.1279 25.9154 38.1279Z" fill="#057B82"/>
<path fill-rule="evenodd" clip-rule="evenodd" d="M40.004 33.3691C38.7062 33.3682 37.6558 34.3632 37.6558 35.5893V44.7874C37.6558 46.0155 38.7062 47.0076 40.005 47.0067C41.3029 47.0067 42.3523 46.0155 42.3523 44.7874V35.5884C42.3523 34.3642 41.3018 33.3691 40.004 33.3691Z" fill="#057B82"/>
<path fill-rule="evenodd" clip-rule="evenodd" d="M76.9666 0.0585938H3.06764C-0.125208 0.0978978 0.06034 4.49803 3.00377 4.49803H7.13044V46.6808C7.13044 51.9418 10.9905 55.5616 16.5235 55.5616H30.613L21.221 71.1021L28.2931 71.0733L37.6577 55.5607H42.3542L51.7178 71.0733L58.791 71.1021L49.398 55.5607H63.4875C69.0195 55.5607 72.8795 51.9428 72.8795 46.6808C72.8795 46.6808 72.8795 8.34407 72.8795 4.49899H77.0021C79.981 4.49707 80.0713 0.0585938 76.9666 0.0585938ZM68.183 46.6799C68.183 49.4081 66.3184 51.1212 63.4865 51.1212H16.5235C13.6916 51.1212 11.827 49.4091 11.827 46.6808L11.8138 31.5814L24.3003 22.9335L32.5668 31.2343C33.4215 32.0933 34.8309 32.1642 35.7749 31.4165L56.7347 16.5931L58.5983 18.8804C59.2432 19.6713 60.5775 19.5218 60.9882 18.5765L65.3612 8.53963C65.7759 7.61743 64.9749 6.58881 63.8991 6.7211L52.5401 8.15714C51.4715 8.26163 50.9097 9.44746 51.583 10.2719L53.8795 13.0893L34.547 26.7604L26.3251 18.5056C25.5302 17.6706 24.1786 17.5249 23.2001 18.2027L11.8087 26.0922C11.7996 16.11 11.7915 5.95324 11.7915 4.49899H68.2175C68.2175 9.06784 68.182 46.6808 68.182 46.6799H68.183Z" fill="#057B82"/>
<path fill-rule="evenodd" clip-rule="evenodd" d="M54.0934 23.8958C52.7945 23.8958 51.7451 24.8908 51.7451 26.1159V44.7873C51.7451 46.0153 52.7945 47.0075 54.0934 47.0065C55.3922 47.0065 56.4416 46.0153 56.4416 44.7873V26.1159C56.4416 24.8899 55.3922 23.8958 54.0934 23.8958Z" fill="#057B82"/>
<defs>
<linearGradient id="paint0_linear_64_206" x1="39.5506" y1="2.34668" x2="39.5506" y2="52.5849" gradientUnits="userSpaceOnUse">
<stop stop-color="#A1F9FE"/>
<stop offset="1" stop-color="#42D6DE"/>
</linearGradient>
</defs>
</svg>
