<svg width="20" height="20" viewBox="0 0 20 20" fill="none" xmlns="http://www.w3.org/2000/svg">
<path fill-rule="evenodd" clip-rule="evenodd" d="M8.8949 15.5661C9.77097 15.5661 10.6385 15.3935 11.4478 15.0583C12.2572 14.723 12.9927 14.2316 13.6121 13.6121C14.2316 12.9927 14.723 12.2572 15.0583 11.4478C15.3935 10.6385 15.5661 9.77097 15.5661 8.8949C15.5661 8.01883 15.3935 7.15133 15.0583 6.34195C14.723 5.53257 14.2316 4.79714 13.6121 4.17767C12.9927 3.55819 12.2572 3.06679 11.4478 2.73154C10.6385 2.39628 9.77097 2.22372 8.8949 2.22372C7.12559 2.22372 5.42875 2.92658 4.17767 4.17767C2.92658 5.42875 2.22372 7.12559 2.22372 8.8949C2.22372 10.6642 2.92658 12.361 4.17767 13.6121C5.42875 14.8632 7.12559 15.5661 8.8949 15.5661ZM8.8949 17.7898C11.254 17.7898 13.5164 16.8527 15.1845 15.1845C16.8527 13.5164 17.7898 11.254 17.7898 8.8949C17.7898 6.53582 16.8527 4.27337 15.1845 2.60526C13.5164 0.937138 11.254 0 8.8949 0C6.53582 0 4.27337 0.937138 2.60526 2.60526C0.937138 4.27337 0 6.53582 0 8.8949C0 11.254 0.937138 13.5164 2.60526 15.1845C4.27337 16.8527 6.53582 17.7898 8.8949 17.7898Z" fill="#00969F"/>
<path fill-rule="evenodd" clip-rule="evenodd" d="M13.6983 13.6648C13.9075 13.4571 14.1907 13.341 14.4855 13.342C14.7803 13.3431 15.0627 13.4612 15.2704 13.6704L19.6901 18.1178C19.8921 18.3281 20.0034 18.6093 20.0001 18.9008C19.9968 19.1924 19.8791 19.471 19.6723 19.6766C19.4655 19.8822 19.1863 19.9983 18.8947 20C18.6031 20.0017 18.3226 19.8887 18.1135 19.6855L13.6938 15.2381C13.486 15.029 13.3697 14.7459 13.3705 14.4511C13.3713 14.1563 13.4892 13.8738 13.6983 13.6659V13.6648Z" fill="#00969F"/>
</svg>
