<svg width="72" height="71" viewBox="0 0 72 71" fill="none" xmlns="http://www.w3.org/2000/svg">
<path d="M33.8169 3.17106C29.5599 3.24038 28.841 6.5388 28.4557 8.31129C28.3582 8.75705 28.2819 9.1405 28.2143 9.47833C28.1151 9.9741 28.0036 10.5313 27.9229 10.7261C27.6692 10.9007 26.7643 11.2289 26.156 11.4491L26.1191 11.4632L23.9836 12.2862C23.4482 12.0133 22.5783 11.4833 22.0587 11.1666C21.2091 10.6489 20.4753 10.2014 19.9416 9.97761C19.4141 9.75648 18.8681 9.64417 18.3195 9.64417C16.2314 9.64417 14.784 11.1912 13.7272 12.3213C13.5253 12.5372 13.3349 12.7408 13.1681 12.904C12.9908 13.076 12.781 13.2585 12.559 13.4506C11.7944 14.1131 10.8421 14.938 10.3295 16.1848C9.2253 18.8717 10.7218 21.2145 11.8146 22.9265C12.056 23.3046 12.2895 23.6697 12.48 24.0093C12.1833 24.9157 11.5926 26.4495 11.1054 27.6402C10.5261 27.8263 9.83621 27.9403 9.11734 28.0605C8.36073 28.186 7.57866 28.3168 6.81152 28.5467C5.08413 29.0661 3.94044 30.1112 3.41204 31.652C3.01092 32.8217 3.04778 34.0273 3.08289 35.1935C3.09254 35.5208 3.1022 35.8297 3.10132 36.1315V37.7487C3.10483 40.2319 4.4074 41.4964 5.50018 42.1203C6.65704 42.781 8.00086 42.9855 9.18668 43.1662C9.78179 43.2566 10.7534 43.4049 11.0765 43.5874L12.3746 47.2877C12.2386 47.5676 11.9384 48.0318 11.7269 48.3591C10.7684 49.8438 9.3201 52.0866 10.1285 54.6172C10.6069 56.1151 11.9059 57.2716 12.9495 58.1999C13.1646 58.3912 13.3673 58.5711 13.5306 58.7273C13.6544 58.8449 13.7729 58.9598 13.887 59.0704C15.1334 60.2725 16.3113 61.408 18.1624 61.408C19.1499 61.408 20.2014 61.0693 21.4733 60.3427L23.1585 59.3521C23.629 59.0695 23.8212 59.0283 23.8581 59.0221C23.9748 59.0441 24.3189 59.2117 24.5717 59.3354C24.9535 59.5223 25.4283 59.7548 26.0322 59.9865C26.3456 60.1067 26.6589 60.1944 26.9626 60.2787C27.2181 60.3497 27.6244 60.4638 27.8114 60.5586C28.0247 61.093 28.1572 61.744 28.2959 62.4311C28.3863 62.8777 28.4802 63.3393 28.6031 63.8043C29.5212 67.6117 31.9333 67.9407 34.3269 67.9495L38.461 67.982C38.4996 67.982 38.5382 67.9837 38.5786 67.9855C38.6822 67.989 38.7893 67.9916 38.8955 67.9916C39.1298 67.9916 39.4862 67.9794 39.8724 67.8758L39.9251 67.8618L40.1744 67.7793C42.6074 66.9869 43.1745 64.5625 43.4782 63.2515L43.989 61.1658L44.0153 61.0675C44.0487 60.9403 44.0847 60.8069 44.1215 60.6823L46.3106 59.8584C46.7074 59.703 47.0646 59.524 47.3788 59.3661C47.6369 59.2362 48.0143 59.0467 48.1942 59.0037L49.309 59.6241C51.3023 60.7762 52.6093 61.4747 53.9347 61.4747C55.6059 61.4747 56.6056 60.4735 57.9889 59.0879C58.283 58.794 58.6156 58.4597 58.9913 58.0973C60.5493 56.5924 61.6754 55.5052 62.0002 53.9626C62.3425 52.3367 61.6781 50.7695 60.4124 48.6144L59.5601 47.1104L60.4738 44.743C60.5581 44.5254 60.6292 44.3139 60.6915 44.127C60.7441 43.97 60.8109 43.769 60.8644 43.6453C61.3884 43.4961 61.9879 43.3926 62.6207 43.2829C63.9637 43.0513 65.3523 42.8117 66.5521 42.065C68.1242 41.0875 68.9264 39.5221 68.9361 37.4135L68.9387 35.6673C68.937 33.2754 68.8615 31.4862 67.8907 30.2024C66.9252 28.9257 65.5103 28.5976 63.5503 28.143C63.1465 28.0491 62.691 27.9438 62.1977 27.821L61.011 27.4814L59.5706 23.9627C59.5759 23.9531 59.5803 23.9434 59.5855 23.9338C59.8094 23.4994 60.0744 23.0581 60.3553 22.5904C60.8547 21.7577 61.3717 20.896 61.7535 19.9194C62.949 16.8579 61.1198 15.0968 59.9094 13.9315C59.7997 13.8262 59.6891 13.7191 59.5785 13.6103C59.3266 13.362 59.0764 13.1032 58.8114 12.8294C58.1741 12.1713 57.5149 11.4904 56.7627 10.8805C55.8376 10.1312 54.8071 9.75122 53.7003 9.75122C51.8983 9.75122 50.3833 10.7463 49.0474 11.6246C48.7253 11.8361 48.4146 12.0405 48.1231 12.2152C47.9002 12.1432 47.6658 12.0546 47.4236 11.9633C47.2428 11.8949 47.0567 11.8247 46.8627 11.7562C46.4133 11.5974 45.999 11.4772 45.6339 11.371C44.3059 10.9841 44.2936 10.9411 44.1426 10.412C43.8995 9.55993 43.7406 8.83075 43.6002 8.18756C43.2438 6.55635 42.9366 5.14801 41.5822 4.19683C40.349 3.32989 38.6515 3.16492 35.9498 3.16316L33.8178 3.16843L33.8169 3.17106Z" fill="url(#paint0_linear_64_238)"/>
<mask id="path-2-outside-1_64_238" maskUnits="userSpaceOnUse" x="-0.86792" y="-0.0751953" width="73" height="71" fill="black">
<rect fill="white" x="-0.86792" y="-0.0751953" width="73" height="71"/>
<path d="M38.8954 66.0639C39.0595 66.0639 39.2245 66.0543 39.372 66.0148L39.5695 65.9499C40.9563 65.498 41.31 64.058 41.5988 62.8085L42.1167 60.692C42.2562 60.1682 42.3879 59.6171 42.6907 59.16L45.6057 58.0623C46.5554 57.6911 47.3752 57.0663 48.2354 57.0663C48.4961 57.0663 48.7603 57.1234 49.0333 57.2629L50.2612 57.9464C52.1238 59.0231 53.1349 59.5461 53.9337 59.5461C55.0229 59.5461 55.7199 58.5738 57.6491 56.711C60.4877 53.9697 61.0091 53.445 58.7393 49.5815L57.4297 47.2702L58.6726 44.0508C59.0412 43.104 59.1369 42.1555 60.1955 41.8334C63.0472 40.9656 66.9874 41.5289 67.0067 37.4083L67.0093 35.6683C67.0067 30.3464 66.4388 30.8712 61.7008 29.691L59.5802 29.0846L57.6667 24.4112C57.4042 23.7619 57.5394 23.697 57.8703 23.0547C58.5304 21.7753 59.4336 20.5591 59.9558 19.2219C60.7572 17.1703 59.4757 16.2253 58.2232 14.9889C57.3489 14.1264 56.5011 13.1568 55.547 12.3846C54.9299 11.8844 54.3129 11.6861 53.7002 11.6861C51.8561 11.6861 50.0514 13.4858 48.3846 14.2712C47.6341 14.1492 46.9337 13.8333 46.2201 13.5815C44.2645 12.8909 42.8584 12.9532 42.2861 10.9447C40.8975 6.07646 42.0983 5.10247 35.9488 5.09808L33.8493 5.10334C31.3916 5.14283 30.8325 6.47571 30.3427 8.72379C29.5949 12.1591 30.0337 12.0994 26.8142 13.2665L24.5698 14.1316C24.4399 14.1834 24.1468 14.3405 24.0291 14.3405H24.0274C23.2304 14.3282 20.218 12.188 19.1963 11.7598C18.8935 11.6326 18.6012 11.5765 18.3203 11.5765C16.7667 11.5765 15.537 13.2937 14.5153 14.2887C13.6815 15.1004 12.5729 15.8076 12.1147 16.9211C11.0895 19.4149 13.6262 21.6735 14.5399 23.8198C14.324 24.8403 13.0767 27.9553 12.5808 29.1206C11.0448 29.9077 9.01981 29.9007 7.36703 30.3982C4.48805 31.2634 5.03664 33.7633 5.03137 36.1386V37.7523C5.03839 42.6293 11.8962 40.1504 12.859 42.8434L14.317 47C14.769 48.4768 11.0553 51.182 11.9664 54.0329C12.3658 55.2833 13.9448 56.4591 14.862 57.334C16.1892 58.6019 16.9765 59.4803 18.1606 59.4803C18.7873 59.4803 19.5246 59.2346 20.5129 58.6695L22.1631 57.6999C22.8898 57.2629 23.4033 57.0935 23.8589 57.0935C24.6857 57.0935 25.3273 57.6516 26.7238 58.1877C27.6419 58.5405 29.0796 58.6493 29.5255 59.6601C30.0294 60.8026 30.1549 62.1346 30.4744 63.3359C31.0458 65.7322 32.0762 66.0157 34.3364 66.0227L38.4864 66.0552C38.6154 66.0578 38.7549 66.0648 38.8945 66.0648M38.8954 69.9248C38.7479 69.9248 38.6207 69.9204 38.518 69.9178C38.489 69.9169 38.4609 69.916 38.4328 69.9152L34.3171 69.8827C32.911 69.8774 31.2845 69.7941 29.7687 68.8745C27.5392 67.5214 26.9336 65.1277 26.7299 64.2765C26.5956 63.765 26.4938 63.2622 26.4034 62.8173C26.3516 62.5637 26.3016 62.3154 26.2498 62.0864C25.9689 62.0065 25.6617 61.9144 25.3387 61.7906C24.7515 61.5651 24.2714 61.3387 23.8984 61.1571L22.4703 61.996L22.4501 62.0074L22.4299 62.0188C20.8544 62.9191 19.4974 63.3394 18.1606 63.3394C16.8238 63.3394 15.6643 62.9463 14.5303 62.1706C13.8026 61.6731 13.1917 61.0843 12.5448 60.4604C12.4325 60.3516 12.3157 60.2393 12.1946 60.1243C12.0559 59.9918 11.8654 59.8225 11.6636 59.6426C10.5085 58.6142 8.92677 57.2067 8.28778 55.2052C7.77869 53.6126 7.8612 51.9296 8.53179 50.2036C8.97681 49.0577 9.60176 48.0907 10.1038 47.3132C10.1512 47.2404 10.2021 47.1606 10.2539 47.0798L9.58947 45.1862C9.35423 45.1459 9.10057 45.1073 8.89518 45.0757C7.61017 44.88 6.01093 44.6361 4.54159 43.7972C2.37095 42.5582 1.17284 40.4128 1.16932 37.7576V36.1351L1.1702 36.1325V36.1299C1.1702 35.8596 1.1623 35.5656 1.15265 35.2541C1.11578 34.0406 1.07014 32.5305 1.58537 31.0282C2.09534 29.5409 3.31978 27.5824 6.25582 26.7006C7.14058 26.4347 8.0227 26.2881 8.80038 26.1583C9.09003 26.11 9.39461 26.0591 9.68251 26.0038C9.92564 25.3879 10.1644 24.7622 10.3575 24.234C10.3013 24.1454 10.2443 24.0559 10.1872 23.9672C9.60263 23.0529 8.94082 22.0157 8.49756 20.782C7.83399 18.9349 7.84891 17.1414 8.5432 15.4531C9.23047 13.7815 10.4233 12.7479 11.2949 11.9932C11.495 11.8195 11.6846 11.6554 11.8224 11.522C11.9567 11.3913 12.1323 11.2035 12.3184 11.0043C13.4691 9.77412 15.3948 7.7147 18.3212 7.7147C19.1278 7.7147 19.9257 7.87791 20.6911 8.19818C21.3257 8.46406 22.0068 8.87296 23.0663 9.51878C23.3656 9.7013 23.7649 9.94523 24.1336 10.1611L25.4256 9.66268L25.4625 9.64865L25.4993 9.63548C25.6942 9.56528 25.9944 9.45648 26.2718 9.3503C26.2884 9.26607 26.306 9.18095 26.3218 9.1011C26.3911 8.75538 26.4692 8.36403 26.5702 7.9016C26.8669 6.53888 27.275 4.97347 28.3731 3.63533C29.6458 2.08484 31.4671 1.27932 33.7869 1.24159H33.8133H33.8396L35.9392 1.23633H35.9453H35.9515C39.049 1.23896 41.0406 1.46008 42.6934 2.62185C44.663 4.00562 45.101 6.01065 45.4872 7.77963C45.5952 8.2754 45.7154 8.82382 45.876 9.43366C45.9779 9.46437 46.0814 9.49421 46.1745 9.52141C46.5449 9.62934 47.0057 9.7636 47.506 9.93997C47.6394 9.98735 47.7658 10.0339 47.8887 10.0795C47.9212 10.0584 47.9536 10.0365 47.9861 10.0154C49.3931 9.09057 51.3189 7.82438 53.6993 7.82438C55.238 7.82438 56.717 8.36403 57.9765 9.38365C58.8209 10.0681 59.5521 10.8236 60.1981 11.4905C60.4553 11.7563 60.6984 12.0073 60.9336 12.2389C61.0337 12.3372 61.1381 12.4381 61.2479 12.5443C61.9518 13.2226 62.8287 14.0667 63.4247 15.2838C63.9864 16.4306 64.4639 18.2882 63.551 20.6249C63.1095 21.7534 62.525 22.7282 62.0097 23.5873C61.9062 23.7601 61.8043 23.9295 61.7078 24.0936L62.4416 25.8871L62.6944 25.9591C63.1587 26.074 63.5783 26.1714 63.9846 26.2662C64.9379 26.4873 65.7612 26.6786 66.5204 26.9612C67.7712 27.4271 68.7227 28.108 69.4293 29.0416C70.7599 30.801 70.8661 32.9885 70.8679 35.6648V35.6736L70.8652 37.4136V37.4189V37.425C70.8591 38.8018 70.5721 40.039 70.0121 41.1034C69.4494 42.1739 68.627 43.0496 67.5702 43.7068C66.05 44.6519 64.4016 44.9362 62.9472 45.1871C62.7348 45.224 62.5267 45.26 62.3275 45.2968C62.3099 45.3433 62.2924 45.3916 62.2731 45.4398L61.6885 46.9552L62.0835 47.6519C63.2833 49.6973 64.406 51.9007 63.8872 54.362C63.587 55.7896 62.8383 56.8101 62.3012 57.4542C61.7499 58.1158 61.0916 58.7511 60.3306 59.4864C59.9681 59.8365 59.6416 60.1638 59.3537 60.4525C58.6506 61.1571 58.095 61.7134 57.4473 62.1916C56.3396 63.0095 55.1897 63.4069 53.9319 63.4069C52.1282 63.4069 50.6185 62.6128 48.3539 61.3045L48.102 61.1641C47.7939 61.3177 47.427 61.4958 47.0118 61.6581L46.989 61.6669L46.9662 61.6757L45.7382 62.1381L45.3555 63.7C45.194 64.3994 44.9491 65.4444 44.4216 66.4588C43.4035 68.4156 41.8753 69.257 40.7711 69.6177L40.5806 69.6809L40.4771 69.7151L40.3717 69.7432C39.9162 69.8651 39.4334 69.9248 38.8945 69.9248L38.8954 69.9248Z"/>
</mask>
<path d="M38.8954 66.0639C39.0595 66.0639 39.2245 66.0543 39.372 66.0148L39.5695 65.9499C40.9563 65.498 41.31 64.058 41.5988 62.8085L42.1167 60.692C42.2562 60.1682 42.3879 59.6171 42.6907 59.16L45.6057 58.0623C46.5554 57.6911 47.3752 57.0663 48.2354 57.0663C48.4961 57.0663 48.7603 57.1234 49.0333 57.2629L50.2612 57.9464C52.1238 59.0231 53.1349 59.5461 53.9337 59.5461C55.0229 59.5461 55.7199 58.5738 57.6491 56.711C60.4877 53.9697 61.0091 53.445 58.7393 49.5815L57.4297 47.2702L58.6726 44.0508C59.0412 43.104 59.1369 42.1555 60.1955 41.8334C63.0472 40.9656 66.9874 41.5289 67.0067 37.4083L67.0093 35.6683C67.0067 30.3464 66.4388 30.8712 61.7008 29.691L59.5802 29.0846L57.6667 24.4112C57.4042 23.7619 57.5394 23.697 57.8703 23.0547C58.5304 21.7753 59.4336 20.5591 59.9558 19.2219C60.7572 17.1703 59.4757 16.2253 58.2232 14.9889C57.3489 14.1264 56.5011 13.1568 55.547 12.3846C54.9299 11.8844 54.3129 11.6861 53.7002 11.6861C51.8561 11.6861 50.0514 13.4858 48.3846 14.2712C47.6341 14.1492 46.9337 13.8333 46.2201 13.5815C44.2645 12.8909 42.8584 12.9532 42.2861 10.9447C40.8975 6.07646 42.0983 5.10247 35.9488 5.09808L33.8493 5.10334C31.3916 5.14283 30.8325 6.47571 30.3427 8.72379C29.5949 12.1591 30.0337 12.0994 26.8142 13.2665L24.5698 14.1316C24.4399 14.1834 24.1468 14.3405 24.0291 14.3405H24.0274C23.2304 14.3282 20.218 12.188 19.1963 11.7598C18.8935 11.6326 18.6012 11.5765 18.3203 11.5765C16.7667 11.5765 15.537 13.2937 14.5153 14.2887C13.6815 15.1004 12.5729 15.8076 12.1147 16.9211C11.0895 19.4149 13.6262 21.6735 14.5399 23.8198C14.324 24.8403 13.0767 27.9553 12.5808 29.1206C11.0448 29.9077 9.01981 29.9007 7.36703 30.3982C4.48805 31.2634 5.03664 33.7633 5.03137 36.1386V37.7523C5.03839 42.6293 11.8962 40.1504 12.859 42.8434L14.317 47C14.769 48.4768 11.0553 51.182 11.9664 54.0329C12.3658 55.2833 13.9448 56.4591 14.862 57.334C16.1892 58.6019 16.9765 59.4803 18.1606 59.4803C18.7873 59.4803 19.5246 59.2346 20.5129 58.6695L22.1631 57.6999C22.8898 57.2629 23.4033 57.0935 23.8589 57.0935C24.6857 57.0935 25.3273 57.6516 26.7238 58.1877C27.6419 58.5405 29.0796 58.6493 29.5255 59.6601C30.0294 60.8026 30.1549 62.1346 30.4744 63.3359C31.0458 65.7322 32.0762 66.0157 34.3364 66.0227L38.4864 66.0552C38.6154 66.0578 38.7549 66.0648 38.8945 66.0648M38.8954 69.9248C38.7479 69.9248 38.6207 69.9204 38.518 69.9178C38.489 69.9169 38.4609 69.916 38.4328 69.9152L34.3171 69.8827C32.911 69.8774 31.2845 69.7941 29.7687 68.8745C27.5392 67.5214 26.9336 65.1277 26.7299 64.2765C26.5956 63.765 26.4938 63.2622 26.4034 62.8173C26.3516 62.5637 26.3016 62.3154 26.2498 62.0864C25.9689 62.0065 25.6617 61.9144 25.3387 61.7906C24.7515 61.5651 24.2714 61.3387 23.8984 61.1571L22.4703 61.996L22.4501 62.0074L22.4299 62.0188C20.8544 62.9191 19.4974 63.3394 18.1606 63.3394C16.8238 63.3394 15.6643 62.9463 14.5303 62.1706C13.8026 61.6731 13.1917 61.0843 12.5448 60.4604C12.4325 60.3516 12.3157 60.2393 12.1946 60.1243C12.0559 59.9918 11.8654 59.8225 11.6636 59.6426C10.5085 58.6142 8.92677 57.2067 8.28778 55.2052C7.77869 53.6126 7.8612 51.9296 8.53179 50.2036C8.97681 49.0577 9.60176 48.0907 10.1038 47.3132C10.1512 47.2404 10.2021 47.1606 10.2539 47.0798L9.58947 45.1862C9.35423 45.1459 9.10057 45.1073 8.89518 45.0757C7.61017 44.88 6.01093 44.6361 4.54159 43.7972C2.37095 42.5582 1.17284 40.4128 1.16932 37.7576V36.1351L1.1702 36.1325V36.1299C1.1702 35.8596 1.1623 35.5656 1.15265 35.2541C1.11578 34.0406 1.07014 32.5305 1.58537 31.0282C2.09534 29.5409 3.31978 27.5824 6.25582 26.7006C7.14058 26.4347 8.0227 26.2881 8.80038 26.1583C9.09003 26.11 9.39461 26.0591 9.68251 26.0038C9.92564 25.3879 10.1644 24.7622 10.3575 24.234C10.3013 24.1454 10.2443 24.0559 10.1872 23.9672C9.60263 23.0529 8.94082 22.0157 8.49756 20.782C7.83399 18.9349 7.84891 17.1414 8.5432 15.4531C9.23047 13.7815 10.4233 12.7479 11.2949 11.9932C11.495 11.8195 11.6846 11.6554 11.8224 11.522C11.9567 11.3913 12.1323 11.2035 12.3184 11.0043C13.4691 9.77412 15.3948 7.7147 18.3212 7.7147C19.1278 7.7147 19.9257 7.87791 20.6911 8.19818C21.3257 8.46406 22.0068 8.87296 23.0663 9.51878C23.3656 9.7013 23.7649 9.94523 24.1336 10.1611L25.4256 9.66268L25.4625 9.64865L25.4993 9.63548C25.6942 9.56528 25.9944 9.45648 26.2718 9.3503C26.2884 9.26607 26.306 9.18095 26.3218 9.1011C26.3911 8.75538 26.4692 8.36403 26.5702 7.9016C26.8669 6.53888 27.275 4.97347 28.3731 3.63533C29.6458 2.08484 31.4671 1.27932 33.7869 1.24159H33.8133H33.8396L35.9392 1.23633H35.9453H35.9515C39.049 1.23896 41.0406 1.46008 42.6934 2.62185C44.663 4.00562 45.101 6.01065 45.4872 7.77963C45.5952 8.2754 45.7154 8.82382 45.876 9.43366C45.9779 9.46437 46.0814 9.49421 46.1745 9.52141C46.5449 9.62934 47.0057 9.7636 47.506 9.93997C47.6394 9.98735 47.7658 10.0339 47.8887 10.0795C47.9212 10.0584 47.9536 10.0365 47.9861 10.0154C49.3931 9.09057 51.3189 7.82438 53.6993 7.82438C55.238 7.82438 56.717 8.36403 57.9765 9.38365C58.8209 10.0681 59.5521 10.8236 60.1981 11.4905C60.4553 11.7563 60.6984 12.0073 60.9336 12.2389C61.0337 12.3372 61.1381 12.4381 61.2479 12.5443C61.9518 13.2226 62.8287 14.0667 63.4247 15.2838C63.9864 16.4306 64.4639 18.2882 63.551 20.6249C63.1095 21.7534 62.525 22.7282 62.0097 23.5873C61.9062 23.7601 61.8043 23.9295 61.7078 24.0936L62.4416 25.8871L62.6944 25.9591C63.1587 26.074 63.5783 26.1714 63.9846 26.2662C64.9379 26.4873 65.7612 26.6786 66.5204 26.9612C67.7712 27.4271 68.7227 28.108 69.4293 29.0416C70.7599 30.801 70.8661 32.9885 70.8679 35.6648V35.6736L70.8652 37.4136V37.4189V37.425C70.8591 38.8018 70.5721 40.039 70.0121 41.1034C69.4494 42.1739 68.627 43.0496 67.5702 43.7068C66.05 44.6519 64.4016 44.9362 62.9472 45.1871C62.7348 45.224 62.5267 45.26 62.3275 45.2968C62.3099 45.3433 62.2924 45.3916 62.2731 45.4398L61.6885 46.9552L62.0835 47.6519C63.2833 49.6973 64.406 51.9007 63.8872 54.362C63.587 55.7896 62.8383 56.8101 62.3012 57.4542C61.7499 58.1158 61.0916 58.7511 60.3306 59.4864C59.9681 59.8365 59.6416 60.1638 59.3537 60.4525C58.6506 61.1571 58.095 61.7134 57.4473 62.1916C56.3396 63.0095 55.1897 63.4069 53.9319 63.4069C52.1282 63.4069 50.6185 62.6128 48.3539 61.3045L48.102 61.1641C47.7939 61.3177 47.427 61.4958 47.0118 61.6581L46.989 61.6669L46.9662 61.6757L45.7382 62.1381L45.3555 63.7C45.194 64.3994 44.9491 65.4444 44.4216 66.4588C43.4035 68.4156 41.8753 69.257 40.7711 69.6177L40.5806 69.6809L40.4771 69.7151L40.3717 69.7432C39.9162 69.8651 39.4334 69.9248 38.8945 69.9248L38.8954 69.9248Z" fill="#067C83"/>
<path d="M39.372 66.0148L39.6843 66.9648L39.6577 66.9735L39.6307 66.9808L39.372 66.0148ZM39.5695 65.9499L39.2571 64.9999L39.2597 64.9991L39.5695 65.9499ZM41.5988 62.8085L40.6244 62.5833L40.6275 62.5708L41.5988 62.8085ZM42.1167 60.692L41.1453 60.4544L41.1478 60.4445L41.1504 60.4346L42.1167 60.692ZM42.6907 59.16L41.857 58.6078L42.0356 58.3381L42.3383 58.2241L42.6907 59.16ZM45.6057 58.0623L45.9697 58.9937L45.9581 58.9981L45.6057 58.0623ZM49.0333 57.2629L49.4884 56.3724L49.5041 56.3805L49.5196 56.3891L49.0333 57.2629ZM50.2612 57.9464L50.7476 57.0727L50.7547 57.0766L50.7617 57.0807L50.2612 57.9464ZM57.6491 56.711L58.3438 57.4303L58.3438 57.4303L57.6491 56.711ZM58.7393 49.5815L57.8771 50.0881L57.8731 50.0813L57.8692 50.0745L58.7393 49.5815ZM57.4297 47.2702L56.5597 47.7632L56.3264 47.3515L56.4968 46.9101L57.4297 47.2702ZM58.6726 44.0508L57.7397 43.6907L57.7407 43.688L58.6726 44.0508ZM60.1955 41.8334L60.4866 42.7901L60.4865 42.7901L60.1955 41.8334ZM67.0067 37.4083L68.0067 37.4099L68.0067 37.413L67.0067 37.4083ZM67.0093 35.6683L68.0093 35.6678L68.0093 35.6698L67.0093 35.6683ZM61.7008 29.691L61.4591 30.6613L61.4424 30.6572L61.4259 30.6524L61.7008 29.691ZM59.5802 29.0846L59.3053 30.0461L58.8386 29.9127L58.6547 29.4636L59.5802 29.0846ZM57.6667 24.4112L56.7412 24.7901L56.7396 24.786L57.6667 24.4112ZM57.8703 23.0547L56.9814 22.5967L56.9816 22.5961L57.8703 23.0547ZM59.9558 19.2219L59.0243 18.8581L59.0244 18.858L59.9558 19.2219ZM58.2232 14.9889L58.9255 14.2771L58.9257 14.2772L58.2232 14.9889ZM55.547 12.3846L54.9179 13.1619L54.9173 13.1614L55.547 12.3846ZM48.3846 14.2712L48.8108 15.1758L48.5303 15.308L48.2242 15.2582L48.3846 14.2712ZM46.2201 13.5815L45.8873 14.5245L45.8871 14.5244L46.2201 13.5815ZM42.2861 10.9447L43.2477 10.6704L43.2478 10.6707L42.2861 10.9447ZM35.9488 5.09808L35.9463 4.09808H35.9495L35.9488 5.09808ZM33.8493 5.10334L33.8332 4.10338L33.8468 4.10335L33.8493 5.10334ZM30.3427 8.72379L29.3656 8.51109L29.3656 8.51092L30.3427 8.72379ZM26.8142 13.2665L26.4545 12.3334L26.4639 12.3298L26.4734 12.3263L26.8142 13.2665ZM24.5698 14.1316L24.1996 13.2026L24.2101 13.1986L24.5698 14.1316ZM24.0274 14.3405V15.3405H24.0197L24.012 15.3404L24.0274 14.3405ZM19.1963 11.7598L18.8098 12.6821L18.8089 12.6818L19.1963 11.7598ZM14.5153 14.2887L15.213 15.0051L15.2128 15.0053L14.5153 14.2887ZM12.1147 16.9211L11.1898 16.5409L11.1899 16.5406L12.1147 16.9211ZM14.5399 23.8198L15.46 23.4281L15.5835 23.7183L15.5182 24.0268L14.5399 23.8198ZM12.5808 29.1206L13.5009 29.5122L13.3591 29.8454L13.0368 30.0106L12.5808 29.1206ZM7.36703 30.3982L7.65528 31.3558L7.65484 31.3559L7.36703 30.3982ZM5.03137 36.1386H4.03137L4.03137 36.1364L5.03137 36.1386ZM5.03137 37.7523L4.03137 37.7537V37.7523H5.03137ZM12.859 42.8434L13.8007 42.5067L13.8027 42.5124L12.859 42.8434ZM14.317 47L15.2606 46.669L15.2673 46.688L15.2732 46.7073L14.317 47ZM11.9664 54.0329L12.9189 53.7285L12.919 53.7287L11.9664 54.0329ZM14.862 57.334L15.5522 56.6103L15.5528 56.6109L14.862 57.334ZM20.5129 58.6695L21.0196 59.5317L21.0093 59.5376L20.5129 58.6695ZM22.1631 57.6999L22.6784 58.5569L22.6697 58.562L22.1631 57.6999ZM26.7238 58.1877L27.0822 57.2542L27.0824 57.2543L26.7238 58.1877ZM29.5255 59.6601L30.4405 59.2566L30.4405 59.2566L29.5255 59.6601ZM30.4744 63.3359L31.4408 63.0788L31.4441 63.0913L31.4471 63.1039L30.4744 63.3359ZM34.3364 66.0227L34.3395 65.0227L34.3442 65.0227L34.3364 66.0227ZM38.4864 66.0552L38.4942 65.0551L38.5068 65.0554L38.4864 66.0552ZM38.518 69.9178L38.4923 70.9175L38.4877 70.9173L38.518 69.9178ZM38.4328 69.9152L38.4407 68.9152L38.4524 68.9153L38.464 68.9156L38.4328 69.9152ZM34.3171 69.8827L34.3208 68.8827L34.325 68.8827L34.3171 69.8827ZM29.7687 68.8745L29.25 69.7294L29.2498 69.7293L29.7687 68.8745ZM26.7299 64.2765L27.6972 64.0226L27.6999 64.0332L27.7025 64.0438L26.7299 64.2765ZM26.4034 62.8173L27.3832 62.6172L27.3834 62.6181L26.4034 62.8173ZM26.2498 62.0864L26.5233 61.1245L27.0943 61.2868L27.2252 61.8658L26.2498 62.0864ZM25.3387 61.7906L24.981 62.7245L24.9802 62.7242L25.3387 61.7906ZM23.8984 61.1571L23.3919 60.2949L23.8541 60.0233L24.3361 60.258L23.8984 61.1571ZM22.4703 61.996L22.9768 62.8582L22.9695 62.8625L22.9622 62.8666L22.4703 61.996ZM22.4501 62.0074L22.942 62.878L22.942 62.878L22.4501 62.0074ZM22.4299 62.0188L21.9338 61.1505L21.938 61.1482L22.4299 62.0188ZM14.5303 62.1706L15.0947 61.3451L15.0948 61.3452L14.5303 62.1706ZM12.5448 60.4604L11.8506 61.1802L11.8491 61.1787L12.5448 60.4604ZM12.1946 60.1243L11.5062 60.8497L11.5038 60.8474L12.1946 60.1243ZM11.6636 59.6426L12.3285 58.8957L12.3288 58.896L11.6636 59.6426ZM8.28778 55.2052L9.2403 54.9007L9.24041 54.9011L8.28778 55.2052ZM8.53179 50.2036L9.46397 50.5656L9.46391 50.5658L8.53179 50.2036ZM10.1038 47.3132L9.26376 46.7707L9.26568 46.7678L10.1038 47.3132ZM10.2539 47.0798L11.1975 46.7487L11.3591 47.2091L11.0956 47.6198L10.2539 47.0798ZM9.58947 45.1862L9.75858 44.2007L10.3383 44.3001L10.5331 44.8551L9.58947 45.1862ZM8.89518 45.0757L9.04572 44.0871L9.04719 44.0873L8.89518 45.0757ZM4.54159 43.7972L5.03732 42.9287L5.0374 42.9288L4.54159 43.7972ZM1.16932 37.7576L0.169325 37.7589V37.7576H1.16932ZM1.16932 36.1351H0.169325V35.9728L0.220674 35.8188L1.16932 36.1351ZM1.1702 36.1325H2.1702V36.2948L2.11885 36.4488L1.1702 36.1325ZM1.15265 35.2541L0.153128 35.2851L0.153109 35.2845L1.15265 35.2541ZM1.58537 31.0282L2.53131 31.3526L2.53128 31.3527L1.58537 31.0282ZM6.25582 26.7006L6.54361 27.6582L6.54348 27.6583L6.25582 26.7006ZM8.80038 26.1583L8.63567 25.1719L8.63603 25.1719L8.80038 26.1583ZM9.68251 26.0038L10.6127 26.371L10.4109 26.8822L9.87108 26.9859L9.68251 26.0038ZM10.3575 24.234L11.2021 23.6986L11.4658 24.1147L11.2967 24.5773L10.3575 24.234ZM10.1872 23.9672L9.34637 24.5085L9.34469 24.5059L10.1872 23.9672ZM8.49756 20.782L7.55646 21.1201L7.55645 21.1201L8.49756 20.782ZM8.5432 15.4531L9.46808 15.8334L9.46805 15.8335L8.5432 15.4531ZM11.2949 11.9932L11.9505 12.7484L11.9495 12.7493L11.2949 11.9932ZM11.8224 11.522L12.52 12.2386L12.5179 12.2406L11.8224 11.522ZM12.3184 11.0043L11.5876 10.3217L11.588 10.3212L12.3184 11.0043ZM20.6911 8.19818L21.0771 7.27569L21.0775 7.27586L20.6911 8.19818ZM23.0663 9.51878L23.5868 8.66492L23.5869 8.665L23.0663 9.51878ZM24.1336 10.1611L24.4935 11.0941L24.044 11.2675L23.6283 11.024L24.1336 10.1611ZM25.4256 9.66268L25.0657 8.72968L25.0698 8.72813L25.4256 9.66268ZM25.4625 9.64865L25.1066 8.7141L25.1164 8.7104L25.1262 8.70689L25.4625 9.64865ZM25.4993 9.63548L25.8383 10.5763L25.8357 10.5772L25.4993 9.63548ZM26.2718 9.3503L27.2527 9.54451L27.1454 10.0866L26.6293 10.2842L26.2718 9.3503ZM26.3218 9.1011L25.3408 8.90701L25.3413 8.90445L26.3218 9.1011ZM26.5702 7.9016L27.5473 8.11432L27.5472 8.11486L26.5702 7.9016ZM28.3731 3.63533L27.6 3.00098L27.6001 3.00085L28.3731 3.63533ZM33.7869 1.24159L33.7707 0.241722L33.7788 0.241592H33.7869V1.24159ZM33.8396 1.24159L33.8421 2.24159H33.8396V1.24159ZM35.9392 1.23633L35.9367 0.236328H35.9392V1.23633ZM35.9515 1.23633V0.236328H35.9523L35.9515 1.23633ZM42.6934 2.62185L42.1185 3.4401L42.1183 3.43996L42.6934 2.62185ZM45.4872 7.77963L46.4642 7.56634L46.4643 7.56685L45.4872 7.77963ZM45.876 9.43366L45.5873 10.3911L45.0515 10.2295L44.909 9.68837L45.876 9.43366ZM46.1745 9.52141L45.8947 10.4815L45.8938 10.4812L46.1745 9.52141ZM47.506 9.93997L47.8385 8.99685L47.8407 8.99763L47.506 9.93997ZM47.8887 10.0795L48.4328 10.9185L48.0114 11.1918L47.5406 11.0169L47.8887 10.0795ZM47.9861 10.0154L48.5354 10.8511L48.5302 10.8545L47.9861 10.0154ZM57.9765 9.38365L58.6057 8.6064L58.6062 8.6068L57.9765 9.38365ZM60.1981 11.4905L60.9163 10.7947L60.9169 10.7952L60.1981 11.4905ZM60.9336 12.2389L60.2329 12.9524L60.232 12.9515L60.9336 12.2389ZM61.2479 12.5443L60.554 13.2644L60.5525 13.2629L61.2479 12.5443ZM63.4247 15.2838L62.5266 15.7237L62.5266 15.7236L63.4247 15.2838ZM63.551 20.6249L64.4825 20.9888L64.4823 20.9893L63.551 20.6249ZM62.0097 23.5873L61.1519 23.0733L61.1522 23.0729L62.0097 23.5873ZM61.7078 24.0936L60.7823 24.4722L60.5946 24.0136L60.8459 23.5864L61.7078 24.0936ZM62.4416 25.8871L62.1678 26.8489L61.7002 26.7158L61.5161 26.2658L62.4416 25.8871ZM62.6944 25.9591L62.4541 26.9298L62.4373 26.9256L62.4206 26.9209L62.6944 25.9591ZM63.9846 26.2662L63.7587 27.2403L63.7576 27.2401L63.9846 26.2662ZM66.5204 26.9612L66.8692 26.024L66.8695 26.0241L66.5204 26.9612ZM69.4293 29.0416L70.2266 28.4382L70.2268 28.4384L69.4293 29.0416ZM70.8679 35.6648L71.8679 35.6641V35.6648H70.8679ZM70.8679 35.6736H71.8679V35.6751L70.8679 35.6736ZM70.8652 37.4136H69.8652V37.4121L70.8652 37.4136ZM70.8652 37.425H71.8652L71.8652 37.4295L70.8652 37.425ZM70.0121 41.1034L69.1269 40.6381L69.1271 40.6378L70.0121 41.1034ZM67.5702 43.7068L68.0983 44.556L68.0982 44.5561L67.5702 43.7068ZM62.9472 45.1871L62.7762 44.2018L62.7771 44.2017L62.9472 45.1871ZM62.3275 45.2968L61.3919 44.9437L61.5911 44.4161L62.1456 44.3135L62.3275 45.2968ZM62.2731 45.4398L61.34 45.0799L61.3446 45.0683L62.2731 45.4398ZM61.6885 46.9552L60.8186 47.4484L60.5852 47.0368L60.7555 46.5953L61.6885 46.9552ZM62.0835 47.6519L61.2209 48.1579L61.2172 48.1516L61.2135 48.1451L62.0835 47.6519ZM63.8872 54.362L62.9086 54.1562L62.9087 54.1557L63.8872 54.362ZM62.3012 57.4542L61.5329 56.8141L61.5332 56.8137L62.3012 57.4542ZM60.3306 59.4864L61.0255 60.2055L61.0253 60.2057L60.3306 59.4864ZM59.3537 60.4525L60.0618 61.1586L60.0616 61.1588L59.3537 60.4525ZM57.4473 62.1916L56.8533 61.3871L56.8533 61.3871L57.4473 62.1916ZM48.3539 61.3045L48.8407 60.431L48.8475 60.4348L48.8541 60.4386L48.3539 61.3045ZM48.102 61.1641L47.6559 60.2691L48.128 60.0338L48.5888 60.2906L48.102 61.1641ZM47.0118 61.6581L47.376 62.5895L47.3707 62.5915L47.0118 61.6581ZM46.9662 61.6757L47.3251 62.6091L47.3186 62.6115L46.9662 61.6757ZM45.7382 62.1381L44.767 61.9001L44.8924 61.3881L45.3858 61.2023L45.7382 62.1381ZM45.3555 63.7L44.3811 63.475L44.3843 63.462L45.3555 63.7ZM44.4216 66.4588L45.3088 66.9202L45.3087 66.9204L44.4216 66.4588ZM40.7711 69.6177L40.4563 68.6685L40.4606 68.6671L40.7711 69.6177ZM40.5806 69.6809L40.8955 70.63L40.8944 70.6304L40.5806 69.6809ZM40.4771 69.7151L40.7908 70.6646L40.763 70.6738L40.7347 70.6813L40.4771 69.7151ZM40.3717 69.7432L40.1131 68.7772L40.1142 68.7769L40.3717 69.7432ZM38.8954 65.0639C39.0332 65.0639 39.0938 65.0541 39.1133 65.0488L39.6307 66.9808C39.3553 67.0545 39.0859 67.0639 38.8954 67.0639V65.0639ZM39.0597 65.0648L39.2571 64.9999L39.8818 66.8998L39.6843 66.9648L39.0597 65.0648ZM39.2597 64.9991C39.6398 64.8752 39.8966 64.6246 40.1088 64.2168C40.3388 63.7745 40.4759 63.2262 40.6245 62.5833L42.5731 63.0337C42.4329 63.6404 42.2488 64.4367 41.8831 65.1398C41.4995 65.8773 40.886 66.5726 39.8793 66.9007L39.2597 64.9991ZM40.6275 62.5708L41.1453 60.4544L43.088 60.9297L42.5702 63.0462L40.6275 62.5708ZM41.1504 60.4346C41.2747 59.9679 41.4438 59.2317 41.857 58.6078L43.5244 59.7122C43.3321 60.0026 43.2378 60.3685 43.083 60.9495L41.1504 60.4346ZM42.3383 58.2241L45.2533 57.1264L45.9581 58.9981L43.0431 60.0958L42.3383 58.2241ZM45.2417 57.1309C45.6828 56.9585 46.0011 56.768 46.5289 56.52C46.986 56.3052 47.5738 56.0663 48.2354 56.0663V58.0663C48.0368 58.0663 47.7846 58.1398 47.3794 58.3302C47.0448 58.4874 46.4783 58.7949 45.9697 58.9937L45.2417 57.1309ZM48.2354 56.0663C48.6518 56.0663 49.0722 56.1598 49.4884 56.3724L48.5782 58.1533C48.4483 58.087 48.3404 58.0663 48.2354 58.0663V56.0663ZM49.5196 56.3891L50.7476 57.0727L49.7748 58.8202L48.5469 58.1366L49.5196 56.3891ZM50.7617 57.0807C51.6965 57.6211 52.3748 57.997 52.9092 58.2392C53.4484 58.4835 53.7462 58.5461 53.9337 58.5461V60.5461C53.3224 60.5461 52.7153 60.3471 52.0836 60.0608C51.447 59.7723 50.6885 59.3485 49.7608 58.8122L50.7617 57.0807ZM53.9337 58.5461C54.1213 58.5461 54.3386 58.488 54.8231 58.07C55.3515 57.6141 55.9261 56.9846 56.9545 55.9916L58.3438 57.4303C57.4429 58.3002 56.7044 59.0883 56.1297 59.5842C55.5111 60.118 54.8353 60.5461 53.9337 60.5461V58.5461ZM56.9545 55.9916C57.6776 55.2933 58.1977 54.788 58.568 54.3436C58.9311 53.9079 59.0783 53.6127 59.1313 53.3611C59.182 53.1202 59.1708 52.8016 58.9835 52.275C58.7909 51.7334 58.4386 51.0438 57.8771 50.0881L59.6015 49.0749C60.1749 50.051 60.6086 50.8757 60.8679 51.6048C61.1325 52.3489 61.2391 53.0572 61.0884 53.7731C60.94 54.4782 60.5665 55.0696 60.1044 55.6241C59.6496 56.1698 59.04 56.758 58.3438 57.4303L56.9545 55.9916ZM57.8692 50.0745L56.5597 47.7632L58.2997 46.7773L59.6093 49.0885L57.8692 50.0745ZM56.4968 46.9101L57.7397 43.6907L59.6055 44.4109L58.3626 47.6304L56.4968 46.9101ZM57.7407 43.688C57.8225 43.478 57.8843 43.281 57.9706 43.0278C58.0501 42.7942 58.1488 42.5188 58.2849 42.2526C58.5816 41.6722 59.0603 41.1335 59.9044 40.8767L60.4865 42.7901C60.2721 42.8554 60.1736 42.952 60.0657 43.163C59.9995 43.2925 59.9389 43.452 59.8638 43.6726C59.7953 43.8736 59.707 44.1502 59.6044 44.4136L57.7407 43.688ZM59.9043 40.8767C60.69 40.6376 61.5417 40.4997 62.2893 40.3701C63.0698 40.2348 63.747 40.1072 64.3252 39.8995C64.8922 39.6959 65.284 39.4419 65.5435 39.1054C65.7961 38.7779 66.0027 38.2694 66.0067 37.4037L68.0067 37.413C68.0011 38.6075 67.7079 39.5739 67.1272 40.3268C66.5534 41.0708 65.7782 41.5027 65.0013 41.7818C64.2356 42.0568 63.3919 42.2087 62.6309 42.3407C61.8371 42.4783 61.1268 42.5953 60.4866 42.7901L59.9043 40.8767ZM66.0067 37.4068L66.0093 35.6668L68.0093 35.6698L68.0067 37.4099L66.0067 37.4068ZM66.0093 35.6688C66.0087 34.3351 65.9709 33.451 65.8605 32.8303C65.7541 32.2322 65.6001 31.9983 65.4507 31.8596C65.2693 31.6913 64.9541 31.5305 64.261 31.3379C63.5468 31.1395 62.7137 30.9739 61.4591 30.6613L61.9425 28.7206C63.0568 28.9982 64.0715 29.2095 64.7964 29.4109C65.5425 29.6182 66.2578 29.8802 66.811 30.3935C67.3961 30.9363 67.6807 31.6428 67.8296 32.48C67.9745 33.2945 68.0087 34.3406 68.0093 35.6678L66.0093 35.6688ZM61.4259 30.6524L59.3053 30.0461L59.8551 28.1232L61.9757 28.7295L61.4259 30.6524ZM58.6547 29.4636L56.7413 24.7901L58.5921 24.0323L60.5056 28.7057L58.6547 29.4636ZM56.7396 24.786C56.5915 24.4195 56.4553 23.9933 56.5732 23.4985C56.6237 23.2868 56.7102 23.1098 56.7737 22.9869C56.8066 22.9235 56.8436 22.8554 56.876 22.7954C56.9102 22.7321 56.9447 22.6679 56.9814 22.5967L58.7593 23.5126C58.7133 23.602 58.6711 23.6803 58.6356 23.746C58.5983 23.8151 58.5725 23.8625 58.5503 23.9056C58.5036 23.9959 58.5106 23.9962 58.5188 23.9622C58.5323 23.9055 58.5284 23.8554 58.5259 23.8409C58.5259 23.8408 58.5284 23.8551 58.5393 23.8892C58.5502 23.9234 58.5672 23.9707 58.5938 24.0365L56.7396 24.786ZM56.9816 22.5961C57.3294 21.9221 57.7482 21.2521 58.1042 20.6506C58.473 20.0275 58.7943 19.4471 59.0243 18.8581L60.8873 19.5856C60.5951 20.3339 60.2036 21.0302 59.8253 21.6694C59.4342 22.3301 59.0713 22.9079 58.759 23.5132L56.9816 22.5961ZM59.0244 18.858C59.3192 18.1034 59.2119 17.6746 58.9955 17.3028C58.7064 16.8062 58.2279 16.3987 57.5207 15.7006L58.9257 14.2772C59.471 14.8156 60.2595 15.4987 60.724 16.2966C61.2611 17.2193 61.3939 18.2888 60.8873 19.5857L59.0244 18.858ZM57.5208 15.7008C56.572 14.7646 55.823 13.8945 54.9179 13.1619L56.1761 11.6073C57.1791 12.4191 58.1259 13.4881 58.9255 14.2771L57.5208 15.7008ZM54.9173 13.1614C54.4689 12.798 54.0717 12.6861 53.7002 12.6861V10.6861C54.554 10.6861 55.3909 10.9709 56.1766 11.6078L54.9173 13.1614ZM53.7002 12.6861C53.0798 12.6861 52.3759 12.9964 51.5003 13.5356C51.0651 13.8037 50.6628 14.0782 50.2014 14.3761C49.7617 14.6599 49.2905 14.9498 48.8108 15.1758L47.9584 13.3665C48.3122 13.1999 48.6915 12.9703 49.1166 12.6958C49.5201 12.4354 49.9967 12.1127 50.4515 11.8327C51.3559 11.2757 52.4765 10.6861 53.7002 10.6861V12.6861ZM48.2242 15.2582C47.3562 15.1171 46.4929 14.7382 45.8873 14.5245L46.5529 12.6385C47.3745 12.9284 47.9121 13.1812 48.545 13.2841L48.2242 15.2582ZM45.8871 14.5244C45.4305 14.3632 45.0134 14.2482 44.5779 14.1197C44.1617 13.9969 43.7145 13.8579 43.3001 13.6581C42.8716 13.4515 42.4572 13.1711 42.1034 12.7523C41.7511 12.3355 41.4979 11.8279 41.3244 11.2187L43.2478 10.6707C43.3604 11.0657 43.4976 11.3036 43.631 11.4615C43.7629 11.6175 43.9296 11.7413 44.1686 11.8565C44.4217 11.9785 44.7286 12.0789 45.1438 12.2015C45.5399 12.3183 46.0319 12.4545 46.5531 12.6385L45.8871 14.5244ZM41.3244 11.219C40.9679 9.96914 40.7698 8.9378 40.6004 8.2025C40.4188 7.41425 40.2815 7.0348 40.104 6.79902C39.9727 6.62469 39.752 6.44201 39.1259 6.30611C38.4656 6.16277 37.4815 6.09917 35.9481 6.09808L35.9495 4.09808C37.4909 4.09918 38.6627 4.15898 39.5502 4.35163C40.4719 4.55171 41.1908 4.91762 41.7016 5.59586C42.1661 6.21265 42.3734 6.98977 42.5493 7.75346C42.7375 8.57011 42.9099 9.4861 43.2477 10.6704L41.3244 11.219ZM35.9513 6.09808L33.8518 6.10334L33.8468 4.10335L35.9463 4.09808L35.9513 6.09808ZM33.8653 6.10321C32.8329 6.1198 32.3988 6.39351 32.131 6.71979C31.794 7.13031 31.5678 7.79818 31.3198 8.93666L29.3656 8.51092C29.6074 7.40133 29.9056 6.27872 30.5851 5.4509C31.3337 4.53886 32.408 4.12637 33.8332 4.10347L33.8653 6.10321ZM31.3198 8.9365C31.1509 9.71227 31.0122 10.4703 30.9031 10.9435C30.7837 11.4609 30.635 11.9689 30.3287 12.4132C30.0054 12.8824 29.5745 13.1868 29.0668 13.4414C28.5807 13.685 27.9448 13.9203 27.155 14.2066L26.4734 12.3263C27.2934 12.0291 27.8099 11.8342 28.1705 11.6535C28.5093 11.4836 28.6191 11.3695 28.682 11.2783C28.7619 11.1622 28.8449 10.9681 28.9542 10.494C29.0737 9.97569 29.1605 9.45296 29.3656 8.51109L31.3198 8.9365ZM27.1739 14.1995L24.9295 15.0647L24.2101 13.1986L26.4545 12.3334L27.1739 14.1995ZM24.94 15.0606C24.9423 15.0597 24.9378 15.0615 24.9224 15.0683C24.9079 15.0748 24.8903 15.0829 24.8668 15.0938C24.8238 15.1136 24.7601 15.1434 24.6967 15.1712C24.6346 15.1985 24.5518 15.2333 24.4646 15.2627C24.4204 15.2776 24.3639 15.2949 24.3004 15.3092C24.2422 15.3223 24.1455 15.3405 24.0291 15.3405V13.3405C23.9824 13.3405 23.9448 13.3443 23.9198 13.3476C23.894 13.3511 23.874 13.3552 23.8612 13.3581C23.848 13.361 23.8385 13.3636 23.8334 13.3651C23.8307 13.3659 23.8287 13.3665 23.8274 13.3669C23.8261 13.3673 23.8254 13.3676 23.8254 13.3676C23.8253 13.3676 23.827 13.367 23.8306 13.3657C23.8342 13.3643 23.839 13.3625 23.8453 13.36C23.8579 13.3549 23.8737 13.3482 23.893 13.3398C23.9338 13.3219 23.9751 13.3026 24.0274 13.2785C24.0515 13.2673 24.079 13.2547 24.1058 13.2426C24.1318 13.231 24.1649 13.2165 24.1996 13.2027L24.94 15.0606ZM24.0291 15.3405H24.0274V13.3405H24.0291V15.3405ZM24.012 15.3404C23.7334 15.3361 23.4663 15.2495 23.2803 15.1794C23.0714 15.1007 22.8479 14.9963 22.6261 14.8834C22.1819 14.6571 21.6729 14.3593 21.1804 14.0629C20.6674 13.7542 20.2017 13.465 19.7586 13.2013C19.3114 12.935 18.9902 12.7578 18.8098 12.6821L19.5828 10.8376C19.9132 10.976 20.3518 11.2268 20.7816 11.4827C21.2156 11.7411 21.7444 12.068 22.2118 12.3493C22.6998 12.6431 23.1572 12.9094 23.5338 13.1012C23.7225 13.1973 23.8731 13.2655 23.9855 13.3079C24.1207 13.3588 24.1221 13.3418 24.0428 13.3406L24.012 15.3404ZM18.8089 12.6818C18.6245 12.6043 18.4636 12.5765 18.3203 12.5765V10.5765C18.7388 10.5765 19.1625 10.6609 19.5837 10.8379L18.8089 12.6818ZM18.3203 12.5765C17.917 12.5765 17.4558 12.8027 16.8789 13.3102C16.6015 13.5543 16.3302 13.8334 16.0506 14.1305C15.7832 14.4146 15.4891 14.7362 15.213 15.0051L13.8176 13.5723C14.0524 13.3437 14.2952 13.0775 14.5942 12.7598C14.8811 12.455 15.2059 12.1183 15.5578 11.8086C16.2396 11.2088 17.1701 10.5765 18.3203 10.5765V12.5765ZM15.2128 15.0053C14.9805 15.2314 14.7336 15.4459 14.5077 15.6417C14.2746 15.8436 14.0626 16.0267 13.8635 16.2161C13.4642 16.5962 13.19 16.936 13.0395 17.3017L11.1899 16.5406C11.4977 15.7928 12.0068 15.2222 12.4848 14.7673C12.7244 14.5393 12.9744 14.3238 13.1981 14.1301C13.4289 13.9301 13.6332 13.7518 13.8178 13.5721L15.2128 15.0053ZM13.0396 17.3014C12.7024 18.1217 12.9024 18.9593 13.4794 20.0244C13.7683 20.5575 14.1112 21.0764 14.4759 21.6517C14.8262 22.2042 15.1964 22.8088 15.46 23.4281L13.6198 24.2115C13.4266 23.7576 13.137 23.2751 12.7867 22.7225C12.4509 22.1928 12.0523 21.5887 11.721 20.9772C11.0576 19.7529 10.5019 18.2143 11.1898 16.5409L13.0396 17.3014ZM15.5182 24.0268C15.3909 24.6285 14.993 25.7401 14.5998 26.7719C14.1946 27.8355 13.7541 28.9174 13.5009 29.5122L11.6607 28.729C11.9035 28.1585 12.3345 27.1003 12.7309 26.0599C13.1393 24.9878 13.473 24.0316 13.5616 23.6128L15.5182 24.0268ZM13.0368 30.0106C12.1241 30.4783 11.1036 30.6927 10.1906 30.8529C9.22586 31.0223 8.40639 31.1297 7.65528 31.3558L7.07879 29.4407C7.98046 29.1692 8.99985 29.0314 9.84481 28.8831C10.7414 28.7257 11.5015 28.55 12.1248 28.2307L13.0368 30.0106ZM7.65484 31.3559C7.07421 31.5304 6.73964 31.7637 6.53186 31.9948C6.32308 32.2269 6.18389 32.5219 6.09884 32.9141C6.01126 33.3179 5.98814 33.7906 5.99364 34.3515C5.9983 34.8275 6.03261 35.5835 6.03137 36.1409L4.03137 36.1364C4.03277 35.5061 4.00048 35.0589 3.99373 34.3711C3.98782 33.7681 4.00848 33.1164 4.14428 32.4902C4.28262 31.8523 4.54642 31.2116 5.04466 30.6575C5.54389 30.1023 6.22037 29.6986 7.07923 29.4405L7.65484 31.3559ZM6.03137 36.1386V37.7523H4.03137V36.1386H6.03137ZM6.03137 37.7509C6.03273 38.6932 6.34299 39.1416 6.72301 39.4273C7.17831 39.7697 7.85899 39.9717 8.76189 40.1323C9.56392 40.275 10.6651 40.3959 11.5056 40.6362C12.3774 40.8854 13.393 41.3666 13.8007 42.5067L11.9174 43.1801C11.8436 42.9737 11.6409 42.7549 10.9559 42.5591C10.2395 42.3544 9.44528 42.2853 8.41163 42.1014C7.47885 41.9355 6.38359 41.6745 5.52099 41.0258C4.58312 40.3206 4.03353 39.2499 4.03137 37.7537L6.03137 37.7509ZM13.8027 42.5124L15.2606 46.669L13.3733 47.331L11.9154 43.1744L13.8027 42.5124ZM15.2732 46.7073C15.5167 47.503 15.1666 48.2827 14.8942 48.7924C14.6044 49.3345 14.1557 49.9881 13.8184 50.5298C13.0485 51.766 12.6173 52.7847 12.9189 53.7285L11.0138 54.3373C10.4044 52.4302 11.3745 50.6708 12.1207 49.4725C12.5414 48.797 12.8794 48.3191 13.1303 47.8496C13.3986 47.3476 13.3432 47.2353 13.3608 47.2927L15.2732 46.7073ZM12.919 53.7287C13.0415 54.1124 13.3867 54.5765 13.9273 55.1173C14.1855 55.3757 14.4634 55.6278 14.7446 55.8788C15.0174 56.1223 15.3072 56.3767 15.5522 56.6103L14.1719 58.0576C13.9582 57.8539 13.7067 57.6332 13.413 57.371C13.1277 57.1164 12.8138 56.8324 12.5127 56.5312C11.9346 55.9528 11.2906 55.2039 11.0138 54.3372L12.919 53.7287ZM15.5528 56.6109C16.2565 57.2832 16.7154 57.7498 17.1599 58.0789C17.5649 58.3786 17.8528 58.4803 18.1606 58.4803V60.4803C17.2843 60.4803 16.5865 60.1427 15.97 59.6863C15.393 59.2592 14.7947 58.6527 14.1712 58.057L15.5528 56.6109ZM18.1606 58.4803C18.5296 58.4803 19.0849 58.334 20.0166 57.8014L21.0093 59.5376C19.9643 60.1351 19.0449 60.4803 18.1606 60.4803V58.4803ZM20.0063 57.8073L21.6565 56.8377L22.6697 58.562L21.0195 59.5317L20.0063 57.8073ZM21.6478 56.8429C22.4412 56.3658 23.1403 56.0935 23.8589 56.0935V58.0935C23.6663 58.0935 23.3385 58.16 22.6784 58.5569L21.6478 56.8429ZM23.8589 56.0935C24.5066 56.0935 25.0436 56.3181 25.504 56.535C25.9923 56.7651 26.4298 57.0037 27.0822 57.2542L26.3654 59.1213C25.6213 58.8356 25.0397 58.5271 24.6515 58.3442C24.2351 58.148 24.0379 58.0935 23.8589 58.0935V56.0935ZM27.0824 57.2543C27.259 57.3221 27.4721 57.3823 27.755 57.4613C28.0192 57.535 28.3399 57.6241 28.6512 57.7402C29.2557 57.9657 30.0505 58.3724 30.4405 59.2566L28.6106 60.0637C28.5547 59.937 28.4076 59.7839 27.9523 59.6141C27.7337 59.5326 27.495 59.4651 27.2174 59.3877C26.9586 59.3154 26.6476 59.2297 26.3651 59.1212L27.0824 57.2543ZM30.4405 59.2566C30.7349 59.9241 30.909 60.6239 31.0468 61.2662C31.1921 61.9436 31.289 62.5082 31.4408 63.0788L29.508 63.5929C29.3402 62.9623 29.2146 62.2603 29.0913 61.6857C28.9605 61.0761 28.82 60.5386 28.6105 60.0636L30.4405 59.2566ZM31.4471 63.1039C31.7088 64.2016 32.0176 64.5545 32.2911 64.7205C32.6347 64.9291 33.1859 65.0191 34.3395 65.0227L34.3333 67.0227C33.2267 67.0192 32.1326 66.964 31.2531 66.4301C30.3035 65.8535 29.8113 64.8666 29.5016 63.5678L31.4471 63.1039ZM34.3442 65.0227L38.4942 65.0552L38.4785 67.0551L34.3286 67.0227L34.3442 65.0227ZM38.5068 65.0554C38.6827 65.059 38.762 65.0648 38.8945 65.0648V67.0648C38.7479 67.0648 38.5481 67.0566 38.466 67.0549L38.5068 65.0554ZM38.8954 70.9248C38.7313 70.9248 38.5855 70.9198 38.4923 70.9175L38.5436 68.9181C38.6558 68.921 38.7645 68.9248 38.8954 68.9248V70.9248ZM38.4877 70.9173C38.4582 70.9164 38.4296 70.9155 38.4016 70.9147L38.464 68.9156C38.4922 68.9165 38.5198 68.9174 38.5482 68.9182L38.4877 70.9173ZM38.4249 70.9151L34.3092 70.8827L34.325 68.8827L38.4407 68.9152L38.4249 70.9151ZM34.3134 70.8827C32.8878 70.8773 31.0176 70.8018 29.25 69.7294L30.2873 68.0195C31.5514 68.7864 32.9341 68.8775 34.3208 68.8827L34.3134 70.8827ZM29.2498 69.7293C26.6412 68.1461 25.964 65.373 25.7574 64.5092L27.7025 64.0438C27.9031 64.8823 28.4373 66.8967 30.2875 68.0196L29.2498 69.7293ZM25.7627 64.5304C25.6202 63.9874 25.5131 63.4575 25.4234 63.0164L27.3834 62.6181C27.4746 63.0668 27.5711 63.5425 27.6972 64.0226L25.7627 64.5304ZM25.4236 63.0174C25.3708 62.7587 25.3233 62.5231 25.2744 62.3069L27.2252 61.8658C27.2799 62.1076 27.3325 62.3687 27.3832 62.6172L25.4236 63.0174ZM25.9764 63.0482C25.6864 62.9658 25.3457 62.8642 24.981 62.7245L25.6964 60.8568C25.9778 60.9646 26.2514 61.0472 26.5233 61.1245L25.9764 63.0482ZM24.9802 62.7242C24.354 62.4837 23.8445 62.2431 23.4606 62.0562L24.3361 60.258C24.6983 60.4344 25.149 60.6466 25.6972 60.8571L24.9802 62.7242ZM24.4048 62.0194L22.9768 62.8582L21.9638 61.1337L23.3919 60.2949L24.4048 62.0194ZM22.9622 62.8666L22.942 62.878L21.9581 61.1368L21.9783 61.1253L22.9622 62.8666ZM22.942 62.878L22.9218 62.8894L21.938 61.1482L21.9581 61.1367L22.942 62.878ZM22.926 62.887C21.2516 63.8438 19.723 64.3394 18.1606 64.3394V62.3394C19.2717 62.3394 20.4571 61.9943 21.9338 61.1505L22.926 62.887ZM18.1606 64.3394C16.6015 64.3394 15.248 63.8731 13.9657 62.996L15.0948 61.3452C16.0806 62.0195 17.046 62.3394 18.1606 62.3394V64.3394ZM13.9658 62.9961C13.1577 62.4435 12.4883 61.7952 11.8506 61.1802L13.239 59.7406C13.8951 60.3734 14.4475 60.9026 15.0947 61.3451L13.9658 62.9961ZM11.8491 61.1787C11.7384 61.0715 11.6242 60.9616 11.5062 60.8497L12.883 59.399C13.0073 59.5169 13.1266 59.6317 13.2405 59.7421L11.8491 61.1787ZM11.5038 60.8474C11.3808 60.7298 11.2061 60.5743 10.9983 60.3892L12.3288 58.896C12.5248 59.0706 12.7311 59.2538 12.8854 59.4013L11.5038 60.8474ZM10.9986 60.3895C9.87119 59.3857 8.06957 57.8098 7.33515 55.5093L9.24041 54.9011C9.78398 56.6037 11.1457 57.8427 12.3285 58.8957L10.9986 60.3895ZM7.33526 55.5097C6.74885 53.6752 6.85577 51.7562 7.59967 49.8415L9.46391 50.5658C8.86663 52.1031 8.80854 53.55 9.2403 54.9007L7.33526 55.5097ZM7.59961 49.8416C8.08636 48.5882 8.76576 47.5419 9.26377 46.7707L10.9439 47.8557C10.4378 48.6395 9.86725 49.5271 9.46397 50.5656L7.59961 49.8416ZM9.26568 46.7678C9.3107 46.6986 9.35822 46.6241 9.41222 46.5399L11.0956 47.6198C11.046 47.6971 10.9917 47.7822 10.942 47.8587L9.26568 46.7678ZM9.31032 47.4109L8.64587 45.5173L10.5331 44.8551L11.1975 46.7487L9.31032 47.4109ZM9.42035 46.1718C9.19559 46.1333 8.95173 46.0961 8.74316 46.0641L9.04719 44.0873C9.2494 44.1184 9.51288 44.1585 9.75858 44.2007L9.42035 46.1718ZM8.74463 46.0643C7.47713 45.8713 5.69869 45.6093 4.04579 44.6656L5.0374 42.9288C6.32317 43.6628 7.7432 43.8887 9.04572 44.0871L8.74463 46.0643ZM4.04587 44.6657C1.5408 43.2358 0.173275 40.7453 0.169326 37.7589L2.16932 37.7562C2.1724 40.0803 3.2011 41.8806 5.03732 42.9287L4.04587 44.6657ZM0.169325 37.7576V36.1351H2.16932V37.7576H0.169325ZM0.220674 35.8188L0.221552 35.8162L2.11885 36.4488L2.11798 36.4515L0.220674 35.8188ZM0.170203 36.1325V36.1299H2.1702V36.1325H0.170203ZM0.170203 36.1299C0.170203 35.8766 0.162774 35.5963 0.153128 35.2851L2.15217 35.2232C2.16183 35.535 2.1702 35.8426 2.1702 36.1299H0.170203ZM0.153109 35.2845C0.11675 34.0876 0.0570416 32.4019 0.639462 30.7038L2.53128 31.3527C2.08324 32.659 2.11482 33.9936 2.15219 35.2238L0.153109 35.2845ZM0.639433 30.7039C1.22772 28.9882 2.65341 26.7384 5.96816 25.7428L6.54348 27.6583C3.98615 28.4264 2.96296 30.0937 2.53131 31.3526L0.639433 30.7039ZM5.96803 25.7429C6.92267 25.456 7.86592 25.3005 8.63567 25.1719L8.96509 27.1446C8.17949 27.2758 7.35849 27.4134 6.54361 27.6582L5.96803 25.7429ZM8.63603 25.1719C8.92755 25.1233 9.22008 25.0744 9.49394 25.0218L9.87108 26.9859C9.56913 27.0439 9.25252 27.0967 8.96473 27.1447L8.63603 25.1719ZM8.75234 25.6367C8.99297 25.0271 9.22861 24.4095 9.41828 23.8906L11.2967 24.5773C11.1002 25.115 10.8583 25.7487 10.6127 26.371L8.75234 25.6367ZM9.51287 24.7693C9.45759 24.6821 9.40184 24.5947 9.34637 24.5085L11.028 23.4259C11.0867 23.517 11.145 23.6086 11.2021 23.6986L9.51287 24.7693ZM9.34469 24.5059C8.76532 23.5997 8.04292 22.4741 7.55646 21.1201L9.43866 20.4439C9.83871 21.5574 10.4399 22.5061 11.0297 23.4286L9.34469 24.5059ZM7.55645 21.1201C6.81604 19.0592 6.82227 17.0086 7.61836 15.0728L9.46805 15.8335C8.87555 17.2742 8.85194 18.8107 9.43867 20.4439L7.55645 21.1201ZM7.61832 15.0729C8.40518 13.159 9.77102 11.9899 10.6404 11.2372L11.9495 12.7493C11.0756 13.5058 10.0558 14.404 9.46808 15.8334L7.61832 15.0729ZM10.6393 11.2381C10.8484 11.0566 11.0133 10.9135 11.127 10.8035L12.5179 12.2406C12.3559 12.3974 12.1417 12.5824 11.9505 12.7484L10.6393 11.2381ZM11.1249 10.8055C11.2383 10.6951 11.3952 10.5276 11.5876 10.3217L13.0491 11.687C12.8693 11.8794 12.6752 12.0875 12.52 12.2386L11.1249 10.8055ZM11.588 10.3212C12.7074 9.12455 14.9085 6.7147 18.3212 6.7147V8.7147C15.8811 8.7147 14.2307 10.4237 13.0487 11.6875L11.588 10.3212ZM18.3212 6.7147C19.2647 6.7147 20.1935 6.90596 21.0771 7.27569L20.3051 9.12067C19.6579 8.84985 18.991 8.7147 18.3212 8.7147V6.7147ZM21.0775 7.27586C21.7963 7.57701 22.5472 8.03124 23.5868 8.66492L22.5458 10.3726C21.4664 9.71469 20.8551 9.35111 20.3047 9.12051L21.0775 7.27586ZM23.5869 8.665C23.8882 8.84872 24.2794 9.08768 24.6389 9.29814L23.6283 11.024C23.2504 10.8028 22.843 10.5539 22.5456 10.3726L23.5869 8.665ZM23.7737 9.2281L25.0657 8.72969L25.7855 10.5957L24.4935 11.0941L23.7737 9.2281ZM25.0698 8.72813L25.1066 8.7141L25.8183 10.5832L25.7815 10.5972L25.0698 8.72813ZM25.1262 8.70689L25.163 8.69373L25.8357 10.5772L25.7988 10.5904L25.1262 8.70689ZM25.1604 8.69467C25.3545 8.62475 25.6468 8.51878 25.9143 8.41639L26.6293 10.2842C26.342 10.3942 26.0339 10.5058 25.8383 10.5763L25.1604 8.69467ZM25.2908 9.1561C25.2996 9.11169 25.3085 9.0674 25.3169 9.02591C25.3255 8.9837 25.3334 8.94454 25.3408 8.90701L27.3028 9.2952C27.2944 9.33752 27.2856 9.38084 27.2773 9.4222C27.2688 9.4643 27.2606 9.50468 27.2527 9.54451L25.2908 9.1561ZM25.3413 8.90445C25.4105 8.55963 25.4902 8.16027 25.5932 7.68834L27.5472 8.11486C27.4483 8.56778 27.3718 8.95113 27.3023 9.29776L25.3413 8.90445ZM25.5931 7.68887C25.893 6.31142 26.3388 4.53793 27.6 3.00098L29.1461 4.26968C28.2112 5.40902 27.8408 6.76635 27.5473 8.11432L25.5931 7.68887ZM27.6001 3.00085C29.0893 1.18666 31.2082 0.283401 33.7707 0.241722L33.8032 2.24146C31.726 2.27525 30.2023 2.98301 29.146 4.26981L27.6001 3.00085ZM33.7869 0.241592H33.8133V2.24159H33.7869V0.241592ZM33.8133 0.241592H33.8396V2.24159H33.8133V0.241592ZM33.8371 0.241592L35.9367 0.236328L35.9417 2.23632L33.8421 2.24158L33.8371 0.241592ZM35.9392 0.236328H35.9453V2.23633H35.9392V0.236328ZM35.9453 0.236328H35.9515V2.23633H35.9453V0.236328ZM35.9523 0.236328C39.0468 0.238953 41.3332 0.443459 43.2684 1.80374L42.1183 3.43996C40.7479 2.4767 39.0511 2.23896 35.9506 2.23633L35.9523 0.236328ZM43.2682 1.8036C45.5931 3.43693 46.0843 5.82647 46.4642 7.56634L44.5102 7.99293C44.1176 6.19483 43.7329 4.57432 42.1185 3.4401L43.2682 1.8036ZM46.4643 7.56685C46.5722 8.06243 46.6885 8.59207 46.8431 9.17896L44.909 9.68837C44.7423 9.05557 44.6181 8.48838 44.5101 7.99241L46.4643 7.56685ZM46.1648 8.47627C46.2612 8.50534 46.3569 8.53288 46.4551 8.56159L45.8938 10.4812C45.806 10.4555 45.6945 10.4234 45.5873 10.3911L46.1648 8.47627ZM46.4542 8.56134C46.8235 8.66896 47.3089 8.81016 47.8385 8.99685L47.1735 10.8831C46.7025 10.717 46.2662 10.5897 45.8947 10.4815L46.4542 8.56134ZM47.8407 8.99763C47.9807 9.04735 48.1122 9.09575 48.2368 9.14202L47.5406 11.0169C47.4194 10.972 47.2982 10.9273 47.1713 10.8823L47.8407 8.99763ZM47.3446 9.24044C47.3562 9.23292 47.3685 9.22479 47.3854 9.21359C47.401 9.20329 47.4212 9.18992 47.442 9.17639L48.5302 10.8545C48.5186 10.862 48.5063 10.8701 48.4894 10.8813C48.4738 10.8916 48.4536 10.905 48.4328 10.9185L47.3446 9.24044ZM47.4368 9.17979C48.8163 8.27301 50.9793 6.82438 53.6993 6.82438V8.82438C51.6585 8.82438 49.9699 9.90813 48.5354 10.8511L47.4368 9.17979ZM53.6993 6.82438C55.4802 6.82438 57.1786 7.45113 58.6057 8.6064L57.3473 10.1609C56.2554 9.27692 54.9958 8.82438 53.6993 8.82438V6.82438ZM58.6062 8.6068C59.5044 9.3348 60.2754 10.133 60.9163 10.7947L59.4798 12.1862C58.8287 11.5141 58.1375 10.8014 57.3468 10.1605L58.6062 8.6068ZM60.9169 10.7952C61.1754 11.0625 61.4101 11.3047 61.6353 11.5264L60.232 12.9515C59.9867 12.7099 59.7352 12.4502 59.4793 12.1857L60.9169 10.7952ZM61.6343 11.5255C61.7311 11.6205 61.8324 11.7184 61.9433 11.8257L60.5525 13.2629C60.4439 13.1579 60.3363 13.0539 60.2329 12.9524L61.6343 11.5255ZM61.9417 11.8242C62.6395 12.4965 63.6401 13.4499 64.3228 14.844L62.5266 15.7236C62.0173 14.6836 61.2641 13.9487 60.554 13.2644L61.9417 11.8242ZM64.3227 14.8439C64.9793 16.1844 65.5185 18.3369 64.4825 20.9888L62.6196 20.2611C63.4093 18.2396 62.9935 16.6769 62.5266 15.7237L64.3227 14.8439ZM64.4823 20.9893C64.006 22.2066 63.3787 23.249 62.8673 24.1016L61.1522 23.0729C61.6713 22.2074 62.2131 21.3001 62.6198 20.2606L64.4823 20.9893ZM62.8675 24.1012C62.7627 24.2762 62.6636 24.441 62.5697 24.6007L60.8459 23.5864C60.9451 23.418 61.0496 23.2441 61.1519 23.0733L62.8675 24.1012ZM62.6333 23.7149L63.3671 25.5085L61.5161 26.2658L60.7823 24.4722L62.6333 23.7149ZM62.7154 24.9253L62.9681 24.9973L62.4206 26.9209L62.1678 26.8489L62.7154 24.9253ZM62.9347 24.9884C63.3912 25.1014 63.8039 25.1972 64.2118 25.2923L63.7576 27.2401C63.3526 27.1456 62.9262 27.0467 62.4541 26.9298L62.9347 24.9884ZM64.2106 25.2921C65.1493 25.5098 66.0385 25.7148 66.8692 26.024L66.1717 27.8984C65.4839 27.6424 64.7265 27.4648 63.7587 27.2403L64.2106 25.2921ZM66.8695 26.0241C68.2731 26.5469 69.3901 27.3328 70.2266 28.4382L68.6319 29.6451C68.0553 28.8832 67.2693 28.3073 66.1713 27.8983L66.8695 26.0241ZM70.2268 28.4384C71.7873 30.5016 71.8661 33.0287 71.8679 35.6641L69.8679 35.6655C69.8661 32.9484 69.7325 31.1004 68.6317 29.6449L70.2268 28.4384ZM71.8679 35.6648V35.6736H69.8679V35.6648H71.8679ZM71.8679 35.6751L71.8652 37.4151L69.8652 37.4121L69.8679 35.6721L71.8679 35.6751ZM71.8652 37.4136V37.4189H69.8652V37.4136H71.8652ZM71.8652 37.4189V37.425H69.8652V37.4189H71.8652ZM71.8652 37.4295C71.8585 38.9436 71.5421 40.343 70.8971 41.569L69.1271 40.6378C69.6021 39.735 69.8597 38.66 69.8652 37.4205L71.8652 37.4295ZM70.8973 41.5686C70.2491 42.8019 69.301 43.8081 68.0983 44.556L67.0421 42.8577C67.953 42.2911 68.6498 41.5459 69.1269 40.6381L70.8973 41.5686ZM68.0982 44.5561C66.3892 45.6185 64.552 45.925 63.1172 46.1726L62.7771 44.2017C64.2512 43.9473 65.7107 43.6853 67.0423 42.8575L68.0982 44.5561ZM63.1181 46.1724C62.904 46.2095 62.702 46.2445 62.5094 46.2801L62.1456 44.3135C62.3514 44.2754 62.5655 44.2384 62.7762 44.2018L63.1181 46.1724ZM63.263 45.65C63.2512 45.6815 63.2257 45.751 63.2015 45.8113L61.3446 45.0683C61.3591 45.0322 61.3687 45.0052 61.3919 44.9437L63.263 45.65ZM63.2061 45.7997L62.6215 47.3151L60.7555 46.5953L61.3401 45.0799L63.2061 45.7997ZM62.5584 46.462L62.9534 47.1588L61.2135 48.1451L60.8186 47.4484L62.5584 46.462ZM62.946 47.146C64.1369 49.1761 65.4723 51.69 64.8657 54.5682L62.9087 54.1557C63.3396 52.1113 62.4298 50.2186 61.2209 48.1579L62.946 47.146ZM64.8658 54.5677C64.516 56.2314 63.6462 57.4028 63.0691 58.0947L61.5332 56.8137C62.0305 56.2175 62.6581 55.3478 62.9086 54.1562L64.8658 54.5677ZM63.0694 58.0943C62.4769 58.8055 61.7763 59.4801 61.0255 60.2055L59.6358 58.7673C60.4069 58.0221 61.023 57.426 61.5329 56.8141L63.0694 58.0943ZM61.0253 60.2057C60.6704 60.5485 60.35 60.8696 60.0618 61.1586L58.6456 59.7464C58.9332 59.458 59.2658 59.1246 59.6359 58.7671L61.0253 60.2057ZM60.0616 61.1588C59.3697 61.8523 58.7605 62.4651 58.0412 62.9962L56.8533 61.3871C57.4295 60.9618 57.9316 60.4619 58.6458 59.7462L60.0616 61.1588ZM58.0412 62.9961C56.7787 63.9283 55.4239 64.4069 53.9319 64.4069V62.4069C54.9555 62.4069 55.9004 62.0906 56.8533 61.3871L58.0412 62.9961ZM53.9319 64.4069C51.8199 64.4069 50.0847 63.4594 47.8536 62.1704L48.8541 60.4386C51.1522 61.7663 52.4365 62.4069 53.9319 62.4069V64.4069ZM47.8671 62.178L47.6152 62.0376L48.5888 60.2906L48.8407 60.431L47.8671 62.178ZM48.5481 62.0591C48.2336 62.2159 47.8342 62.4103 47.376 62.5895L46.6477 60.7268C47.0198 60.5813 47.3542 60.4195 47.6559 60.2691L48.5481 62.0591ZM47.3707 62.5915L47.3479 62.6003L46.6301 60.7335L46.653 60.7248L47.3707 62.5915ZM47.3479 62.6003L47.3251 62.6091L46.6073 60.7423L46.6301 60.7335L47.3479 62.6003ZM47.3186 62.6115L46.0907 63.074L45.3858 61.2023L46.6138 60.7399L47.3186 62.6115ZM46.7095 62.3761L46.3268 63.938L44.3843 63.462L44.767 61.9001L46.7095 62.3761ZM46.3299 63.925C46.1687 64.6231 45.9011 65.7812 45.3088 66.9202L43.5344 65.9974C43.9971 65.1077 44.2194 64.1756 44.3812 63.475L46.3299 63.925ZM45.3087 66.9204C44.1411 69.1643 42.3686 70.1479 41.0816 70.5683L40.4606 68.6671C41.382 68.3662 42.6658 67.6668 43.5345 65.9972L45.3087 66.9204ZM41.0859 70.5668L40.8955 70.63L40.2658 68.7317L40.4563 68.6685L41.0859 70.5668ZM40.8944 70.6304L40.7908 70.6646L40.1633 68.7656L40.2669 68.7314L40.8944 70.6304ZM40.7347 70.6813L40.6293 70.7094L40.1142 68.7769L40.2195 68.7488L40.7347 70.6813ZM40.6304 70.7091C40.08 70.8565 39.5092 70.9248 38.8945 70.9248V68.9248C39.3576 68.9248 39.7524 68.8738 40.1131 68.7772L40.6304 70.7091ZM38.8945 68.9248H38.8954V70.9248H38.8945V68.9248Z" fill="#067C83" mask="url(#path-2-outside-1_64_238)"/>
<path d="M35.9998 42.7926C39.9844 42.7926 43.2143 39.5634 43.2143 35.5805C43.2143 31.5975 39.9844 28.3684 35.9998 28.3684C32.0153 28.3684 28.7854 31.5975 28.7854 35.5805C28.7854 39.5634 32.0153 42.7926 35.9998 42.7926ZM35.9998 47.6534C32.775 47.6534 29.7408 46.3969 27.4605 44.1174C25.1803 41.8378 23.9233 38.8045 23.9233 35.5805C23.9233 32.3565 25.1803 29.3231 27.4605 27.0436C29.7408 24.764 32.775 23.5075 35.9998 23.5075C39.2247 23.5075 42.2589 24.764 44.5391 27.0436C46.8193 29.3231 48.0763 32.3565 48.0763 35.5805C48.0763 38.8045 46.8193 41.8378 44.5391 44.1174C42.2589 46.3969 39.2247 47.6534 35.9998 47.6534Z" fill="#067C83" stroke="#067C83"/>
<defs>
<linearGradient id="paint0_linear_64_238" x1="36.0007" y1="3.16316" x2="36.0007" y2="67.9916" gradientUnits="userSpaceOnUse">
<stop stop-color="#9CF7FC"/>
<stop offset="1" stop-color="#46D7DF"/>
</linearGradient>
</defs>
</svg>
