<svg width="10" height="12" viewBox="0 0 10 12" fill="none" xmlns="http://www.w3.org/2000/svg">
<path d="M4.8619 0.195196C4.98692 0.0702119 5.15647 0 5.33325 0C5.51003 0 5.67957 0.0702119 5.80459 0.195196L9.80469 4.19529C9.8219 4.21261 9.83814 4.23086 9.85335 4.24996L9.85735 4.25529L9.86802 4.26996L9.89602 4.30929L9.90202 4.31929L9.90669 4.32596L9.91602 4.34396L9.93202 4.37329L9.93669 4.38463L9.94336 4.39796L9.95136 4.4193L9.96136 4.44196L9.96602 4.45863L9.97136 4.47196L9.97469 4.4893L9.98269 4.51396L9.98536 4.53263L9.98936 4.5493L9.99136 4.56663L9.99536 4.58863L9.99669 4.60863L9.99869 4.6273V4.64463L10 4.66664L9.99869 4.68864V4.70597L9.99669 4.7233L9.99536 4.74464L9.99202 4.76397L9.98936 4.78397L9.98536 4.79997L9.98269 4.81997L9.97469 4.84331L9.97136 4.86131L9.96602 4.87397L9.96136 4.89131L9.95136 4.91331L9.94336 4.93598L9.93669 4.94797L9.93202 4.95997L9.91602 4.98864L9.90669 5.00731L9.90202 5.01331L9.89602 5.02398L9.86802 5.06264L9.86002 5.07531L9.85735 5.07731L9.85335 5.08398C9.82276 5.12187 9.78811 5.1563 9.75002 5.18665L9.74402 5.19065L9.72935 5.20131L9.69068 5.22931L9.68002 5.23531L9.67402 5.23998L9.65535 5.24932L9.62668 5.26532L9.61468 5.26998L9.60268 5.27665L9.58001 5.28465L9.55801 5.29465L9.54201 5.29865L9.52801 5.30465L9.51001 5.30798L9.48601 5.31598L9.46668 5.31865L9.45068 5.32265L9.43201 5.32465L9.41134 5.32865L9.39001 5.32998L9.37267 5.33198H9.35534L9.33334 5.33332H1.33315C0.739803 5.33332 0.441796 4.6153 0.861806 4.19529L4.8619 0.195196ZM9.33334 6.66668L9.35534 6.66802H9.37267L9.39001 6.67002L9.41134 6.67135L9.43201 6.67535L9.45068 6.67735L9.46668 6.68135L9.48668 6.68402L9.51001 6.69202L9.52801 6.69535L9.54068 6.70068L9.55801 6.70535L9.58001 6.71535L9.60268 6.72335L9.61468 6.73002L9.62668 6.73468L9.65535 6.75068L9.67402 6.76002L9.68002 6.76469L9.69068 6.77069L9.72468 6.79535L9.74202 6.80669L9.74402 6.80935L9.75068 6.81335C9.78858 6.84394 9.82301 6.8786 9.85335 6.91669L9.85735 6.92269L9.86735 6.93602L9.89602 6.97602L9.90202 6.98669L9.90669 6.99269L9.91602 7.01136L9.93202 7.04002L9.93536 7.04869L9.94336 7.06402L9.95136 7.08669L9.96136 7.10869L9.96602 7.12603L9.97136 7.13936L9.97469 7.15669L9.98269 7.18069L9.98536 7.20003L9.98936 7.21603L9.99136 7.2347L9.99536 7.25536L9.99669 7.2767L9.99869 7.29403V7.31136L10 7.33336L9.99869 7.35537V7.3727L9.99669 7.39003L9.99536 7.41137L9.99136 7.43203L9.98936 7.4507L9.98536 7.4667L9.98269 7.4867L9.97469 7.51004L9.97136 7.52804L9.96602 7.5407L9.96136 7.55804L9.95136 7.58004L9.94336 7.60271L9.93669 7.6147L9.93202 7.6267L9.91602 7.65537L9.90669 7.67404L9.90202 7.68004L9.89602 7.69071L9.86802 7.72937L9.86002 7.74204L9.85735 7.74404L9.85335 7.75071L9.80469 7.80471L5.80459 11.8048C5.67957 11.9298 5.51003 12 5.33325 12C5.15647 12 4.98692 11.9298 4.8619 11.8048L0.861806 7.80471C0.441796 7.3847 0.739136 6.66668 1.33315 6.66668H9.33334Z" fill="#747474"/>
</svg>
